<svg width="117" height="34" viewBox="0 0 117 34" fill="none" xmlns="http://www.w3.org/2000/svg">
<g clip-path="url(#clip0_2294_48994)">
<path opacity="0.6" d="M22.5 3.77734H3.75V26.444H22.5V3.77734Z" fill="#F73F7F"/>
<path opacity="0.6" d="M22.4999 0V3.77768H3.74989V26.4444H7.50007V30.2223H0V0H22.4999Z" fill="url(#paint0_linear_2294_48994)"/>
<path opacity="0.6" d="M7.5 33.9997V30.222H26.2498V7.55531H22.4999V3.77734H29.9999V33.9997H7.5Z" fill="url(#paint1_linear_2294_48994)"/>
<path opacity="0.6" d="M26.25 7.55469H7.5V30.2214H26.25V7.55469Z" fill="url(#paint2_linear_2294_48994)"/>
</g>
<path d="M49.7497 24.6559L46 13.5977H48.4303L51.2153 22.3164H51.2989L54.0832 13.5977H56.495L52.767 24.6559H49.7497Z" fill="#1D1D1F"/>
<path d="M75.9656 13.598V15.6495H73.2272V24.652H70.9648V13.5938L75.9656 13.598Z" fill="#1D1D1F"/>
<path d="M77.6408 10.4252C77.6384 10.0737 77.7639 9.73397 77.9927 9.47198C78.2216 9.20999 78.5376 9.04457 78.879 9.00778C79.2205 8.971 79.5631 9.0655 79.8402 9.27298C80.1173 9.48046 80.3091 9.78603 80.3783 10.1303C80.4188 10.3358 80.4143 10.548 80.365 10.7515C80.3157 10.9551 80.2229 11.1448 80.0932 11.3072C79.9635 11.4695 79.8002 11.6003 79.6151 11.6902C79.4301 11.7801 79.2278 11.8269 79.0229 11.827C78.8414 11.8308 78.661 11.7973 78.4924 11.7286C78.3237 11.6599 78.1701 11.5573 78.0408 11.4269C77.9121 11.2958 77.8102 11.1398 77.741 10.968C77.6724 10.7958 77.6383 10.6111 77.6408 10.4252ZM77.8913 24.6563V13.5981H80.1537V24.6563H77.8913Z" fill="#1D1D1F"/>
<path d="M108.618 24.9984C105.269 24.9984 102.855 22.4922 102.855 19.1253C102.855 15.7182 105.265 13.2539 108.573 13.2539C111.734 13.2539 113.892 15.7395 113.892 19.1253C113.894 19.4058 113.873 19.686 113.829 19.9629H105.227C105.519 21.7845 106.798 22.9197 108.651 22.9197C109.992 22.9197 110.953 22.4273 111.732 21.4204L113.051 22.8128C111.969 24.2677 110.463 24.9984 108.618 24.9984ZM105.226 18.2902H111.657C111.489 16.5379 110.276 15.2891 108.537 15.2891C106.75 15.2891 105.514 16.4679 105.222 18.2902H105.226Z" fill="#1D1D1F"/>
<path d="M66.1321 13.5971V14.61C65.2939 13.897 64.2745 13.4431 63.1934 13.3015C62.1122 13.1598 61.014 13.3362 60.0273 13.8101C59.0405 14.284 58.2061 15.0357 57.6215 15.9773C57.037 16.9189 56.7266 18.0114 56.7266 19.127C56.7266 20.2426 57.037 21.3351 57.6215 22.2768C58.2061 23.2184 59.0405 23.9701 60.0273 24.444C61.014 24.9178 62.1122 25.0943 63.1934 24.9527C64.2745 24.811 65.2939 24.3572 66.1321 23.6441V24.6562H68.2049V13.5962L66.1321 13.5971ZM66.1321 20.3934C65.8222 21.2913 65.1942 22.0375 64.3725 22.4842C63.5508 22.9309 62.5952 23.0456 61.6948 22.8057C60.7944 22.5658 60.0148 21.9887 59.5102 21.1886C59.0056 20.3885 58.8129 19.4236 58.9701 18.485C59.1272 17.5464 59.6228 16.7024 60.359 16.1199C61.095 15.5374 62.018 15.259 62.945 15.3397C63.8721 15.4203 64.7358 15.8542 65.3653 16.5554C65.9948 17.2567 66.3441 18.1743 66.3443 19.1266C66.3443 19.5581 66.2726 19.9866 66.1321 20.3934Z" fill="#1D1D1F"/>
<path d="M91.3782 13.5971V14.61C90.5399 13.897 89.5205 13.4431 88.4394 13.3015C87.3583 13.1598 86.2601 13.3362 85.2734 13.8101C84.2866 14.284 83.4521 15.0357 82.8676 15.9773C82.283 16.9189 81.9727 18.0114 81.9727 19.127C81.9727 20.2426 82.283 21.3351 82.8676 22.2768C83.4521 23.2184 84.2866 23.9701 85.2734 24.444C86.2601 24.9178 87.3583 25.0943 88.4394 24.9527C89.5205 24.811 90.5399 24.3572 91.3782 23.6441V24.6562H93.451V13.5962L91.3782 13.5971ZM91.3782 20.3934C91.0682 21.2913 90.4403 22.0375 89.6185 22.4842C88.7968 22.9309 87.8412 23.0456 86.9408 22.8057C86.0404 22.5658 85.2608 21.9887 84.7562 21.1886C84.2517 20.3885 84.0589 19.4236 84.2161 18.485C84.3732 17.5464 84.8689 16.7024 85.6049 16.1199C86.341 15.5374 87.264 15.259 88.191 15.3397C89.1181 15.4203 89.9818 15.8542 90.6113 16.5554C91.2408 17.2567 91.5902 18.1743 91.5903 19.1266C91.5904 19.5581 91.5186 19.9866 91.3782 20.3934Z" fill="#1D1D1F"/>
<path d="M99.1084 22.641H101.44V24.6557H96.8469V22.641L96.843 15.6114H95.6855V13.5975H96.838V10.7246H99.1084V13.5941H101.44V15.6088H99.1202V15.6114H99.1084V22.641Z" fill="#1D1D1F"/>
<path d="M96.838 13.5938H95.6855V13.5971H96.838V13.5938Z" fill="#1D1D1F"/>
<path d="M116.125 24.642C116.647 24.642 117 24.241 117 23.7469C117 23.2487 116.643 22.8477 116.125 22.8477C115.61 22.8477 115.25 23.2406 115.25 23.7469C115.25 24.2329 115.59 24.642 116.125 24.642ZM116.125 24.5043C115.674 24.5043 115.396 24.16 115.396 23.7469C115.396 23.3418 115.678 22.9854 116.125 22.9854C116.564 22.9854 116.849 23.3337 116.849 23.7469C116.849 24.16 116.576 24.5043 116.125 24.5043ZM115.967 24.2289V23.8805H116.157L116.362 24.2289H116.568L116.343 23.8562C116.461 23.8117 116.552 23.7023 116.552 23.5524C116.552 23.3702 116.406 23.2163 116.216 23.2163H115.788V24.2289H115.967ZM115.967 23.3864H116.216C116.311 23.3864 116.378 23.4552 116.378 23.5524C116.378 23.6456 116.307 23.7185 116.212 23.7185H115.967V23.3864Z" fill="#1D1D1F"/>
<defs>
<linearGradient id="paint0_linear_2294_48994" x1="0" y1="15.111" x2="22.4999" y2="15.111" gradientUnits="userSpaceOnUse">
<stop stop-color="#FBCC39"/>
<stop offset="1" stop-color="#FB8339"/>
</linearGradient>
<linearGradient id="paint1_linear_2294_48994" x1="7.5" y1="18.8886" x2="29.9999" y2="18.8886" gradientUnits="userSpaceOnUse">
<stop stop-color="#FBCC39"/>
<stop offset="1" stop-color="#FB8339"/>
</linearGradient>
<linearGradient id="paint2_linear_2294_48994" x1="7.5" y1="18.888" x2="26.2498" y2="18.888" gradientUnits="userSpaceOnUse">
<stop stop-color="#67C6F7"/>
<stop offset="1" stop-color="#0171FA"/>
</linearGradient>
<clipPath id="clip0_2294_48994">
<rect width="30" height="34" fill="white"/>
</clipPath>
</defs>
</svg>
