<svg width="194" height="194" viewBox="0 0 194 194" fill="none" xmlns="http://www.w3.org/2000/svg">
<path d="M163.757 95.3104C163.759 95.555 163.688 95.7944 163.555 95.9985C163.422 96.2025 163.233 96.3619 163.011 96.4565C162.789 96.5511 162.544 96.5767 162.308 96.53C162.071 96.4833 161.854 96.3664 161.683 96.1941C161.512 96.0219 161.395 95.802 161.347 95.5622C161.299 95.3225 161.322 95.0737 161.414 94.8474C161.505 94.6211 161.66 94.4273 161.86 94.2907C162.06 94.1541 162.295 94.0808 162.536 94.08C162.858 94.0804 163.167 94.2099 163.396 94.4403C163.624 94.6706 163.754 94.9833 163.757 95.3104V95.3104ZM161.903 96.1297H162.157V95.4547H162.305C162.503 95.4547 162.575 95.5254 162.775 95.8815L162.912 96.1297H163.22L163.032 95.8212C162.9 95.6109 162.803 95.4759 162.667 95.4249V95.4178C162.726 95.4171 162.784 95.4045 162.839 95.3808C162.893 95.3571 162.942 95.3227 162.983 95.2796C163.025 95.2365 163.057 95.1856 163.079 95.1297C163.101 95.0738 163.111 95.0141 163.11 94.9541C163.11 94.7807 162.984 94.5399 162.593 94.5399H161.903V96.1297V96.1297ZM162.157 95.2351V94.7585H162.559C162.731 94.7585 162.847 94.8483 162.847 94.9924C162.847 95.1603 162.716 95.2351 162.516 95.2351H162.157V95.2351ZM164 95.3104C164 95.0179 163.914 94.7322 163.754 94.4891C163.594 94.2461 163.366 94.0567 163.1 93.9448C162.834 93.8328 162.542 93.8034 162.259 93.8602C161.977 93.9171 161.717 94.0576 161.513 94.264C161.31 94.4705 161.17 94.7337 161.114 95.0203C161.057 95.307 161.085 95.6044 161.194 95.8749C161.304 96.1454 161.489 96.3769 161.728 96.5403C161.967 96.7036 162.248 96.7915 162.536 96.7928C162.728 96.7939 162.919 96.7564 163.097 96.6824C163.275 96.6084 163.436 96.4993 163.572 96.3615C163.708 96.2236 163.816 96.0598 163.89 95.8794C163.963 95.699 164.001 95.5056 164 95.3104Z" fill="black"/>
<path d="M77.5762 102.19L77.1805 102.035C76.7805 99.0273 75.3303 96.2681 71.9609 96.2681C67.9432 96.2681 66.7197 100.948 66.7197 104.061C66.7197 107.17 67.9432 111.846 71.9609 111.846C75.3573 111.846 77.2289 109.722 77.7293 106.384L78.0775 106.26L79.2752 110.635C76.7542 111.949 74.5306 112.659 71.2593 112.659C66.443 112.659 61.8242 109.698 61.8242 104.061C61.8242 98.419 66.443 95.4592 71.2593 95.4592C74.3562 95.4592 77.0755 96.0632 79.1035 97.1274L77.5762 102.19Z" fill="black"/>
<path d="M88.7325 107.105C88.7325 108.818 88.1701 111.671 85.9318 111.671C84.4701 111.671 83.6728 110.268 83.6728 108.898C83.6728 106.042 85.7796 104.848 88.2721 104.848H88.7324V107.105H88.7325ZM89.4479 112.209H93.6692V111.846C92.6191 111.566 92.3203 110.602 92.3203 109.463V104.391C92.3203 100.065 90.0703 98.6745 86.7028 98.6745C84.4839 98.5999 82.3872 99.2575 80.2183 99.9161L81.266 103.891L81.6384 103.787C82.2922 101.224 83.6371 99.5102 85.7294 99.4867C87.5472 99.4867 88.6468 100.895 88.6468 102.932V104.063H88.098C84.5364 104.063 79.665 105.073 79.665 108.647C79.665 111.589 82.3872 112.565 84.9325 112.565C86.7762 112.565 87.9499 111.589 88.9001 110.08L89.4479 112.209Z" fill="black"/>
<path d="M102.5 103.083C102.097 102.626 101.701 102.195 101.05 102.195C99.6015 102.195 99.1039 104.173 99.1039 106.026V107.981C99.1039 110.083 99.4536 111.553 100.802 111.932V112.294C99.6269 112.294 98.4255 112.204 97.2806 112.204C96.1309 112.204 94.9332 112.294 93.7598 112.294V111.932C95.1082 111.553 95.4548 110.083 95.4548 107.981V102.579C95.4548 100.803 94.6563 100.272 93.9049 100.117V99.7577C95.6088 99.623 97.3029 99.3809 98.9773 99.033C98.9773 99.6879 98.9259 100.419 98.9259 101.172V102.729H98.9773C99.5009 100.931 100.825 98.6726 102.873 98.6726H103.995L102.5 103.083Z" fill="black"/>
<path d="M109.315 101.489V101.543H109.366C110.268 99.6216 111.638 98.6667 113.777 98.6667C116.422 98.6667 118.298 100.452 118.298 103.139V109.856C118.298 111.047 118.793 111.707 119.944 111.932V112.294C118.793 112.294 117.524 112.203 116.476 112.203C115.452 112.203 114.276 112.294 113.13 112.294V111.932C114.002 111.831 114.652 111.124 114.652 109.856V103.873C114.652 102.229 114.228 100.071 112.231 100.071C110.089 100.071 109.519 103.344 109.519 104.962V107.98C109.519 110.082 109.868 111.552 111.213 111.932V112.294C110.041 112.294 108.844 112.203 107.696 112.203C106.544 112.203 105.346 112.294 104.17 112.294V111.932C105.519 111.552 105.869 110.082 105.869 107.98V102.579C105.869 100.802 105.073 100.271 104.323 100.117V99.7573C106.001 99.6273 107.668 99.3851 109.315 99.0324L109.315 101.489Z" fill="black"/>
<path d="M125.277 109.099C125.277 110.617 125.625 111.657 126.974 111.859V112.22C125.797 112.22 124.602 112.128 123.455 112.128C122.306 112.128 121.106 112.22 119.933 112.22V111.859C121.279 111.657 121.63 110.617 121.63 109.099V101.512C121.63 100.729 121.033 100.199 120.281 100.04V99.6824C121.961 99.5539 123.63 99.3106 125.277 98.9543V109.099H125.277ZM125.282 95.8116C125.282 96.8755 124.48 97.8635 123.386 97.8635C122.288 97.8635 121.491 96.8755 121.491 95.8116C121.491 94.7469 122.288 93.7573 123.386 93.7573C124.48 93.7573 125.282 94.7469 125.282 95.8116Z" fill="black"/>
<path d="M133.626 111.801C133.504 112.103 133.252 112.582 133.13 112.582H133.077C132.979 112.582 132.855 112.38 132.557 111.801L127.94 102.704C126.591 100.3 126.864 100.705 125.593 99.9174V99.4568C126.79 99.4568 128.014 99.5461 129.087 99.5461C130.157 99.5461 131.529 99.4568 132.705 99.4568V99.8186C132.082 99.9415 131.23 100.275 131.23 100.986C131.245 101.305 131.332 101.616 131.483 101.895L134.623 107.669L136.445 104.303C136.937 103.373 137.211 102.34 137.244 101.285C137.244 100.5 136.644 100.046 135.694 99.8186V99.4568C136.521 99.4568 137.39 99.5461 138.142 99.5461C138.889 99.5461 139.837 99.4568 140.663 99.4568V99.8186C138.938 101.036 138.468 101.895 137.543 103.767L133.626 111.801Z" fill="black"/>
<path d="M149.616 107.105C149.616 108.818 149.053 111.671 146.82 111.671C145.352 111.671 144.555 110.268 144.555 108.898C144.555 106.042 146.662 104.848 149.157 104.848H149.616V107.105ZM150.333 112.209H154.553V111.846C153.504 111.566 153.205 110.602 153.205 109.463V104.391C153.205 100.065 150.954 98.6745 147.587 98.6745C145.369 98.5999 143.27 99.2575 141.104 99.9161L142.148 103.891L142.522 103.787C143.174 101.224 144.522 99.5102 146.614 99.4867C148.434 99.4867 149.529 100.895 149.529 102.932V104.063H148.982C145.418 104.063 140.555 105.073 140.555 108.647C140.555 111.589 143.27 112.565 145.816 112.565C147.661 112.565 148.837 111.589 149.78 110.08L150.333 112.209Z" fill="black"/>
<path d="M156.215 96.8949C156.215 95.7564 155.838 95.2472 154.771 95.021V94.6382C156.509 94.4461 158.234 94.1504 159.938 93.7524C159.938 94.5339 159.867 95.5249 159.867 96.4626V107.902C159.867 110.006 160.214 111.479 161.563 111.859V112.22C160.391 112.22 159.189 112.128 158.041 112.128C156.89 112.128 155.688 112.22 154.52 112.22V111.859C155.867 111.479 156.215 110.006 156.215 107.902V96.8949Z" fill="black"/>
<path d="M59.2891 92.6944C59.2862 92.6987 59.2828 92.7026 59.279 92.706L60.5174 93.7223C60.7982 93.9379 60.7238 94.1094 60.7238 94.1094C60.6966 94.2227 60.4874 94.3099 60.4874 94.3099L58.5729 95.1971C58.5603 95.3062 58.5471 95.4153 58.5361 95.5213C58.5361 95.5213 58.5361 95.5287 58.5347 95.5446C58.5347 95.5489 58.5331 95.5532 58.5331 95.5594C58.5331 95.5637 58.5317 95.5694 58.5317 95.5765C58.5317 95.5825 58.5303 95.5896 58.5303 95.597C58.5286 95.6158 58.5274 95.6392 58.5244 95.6654C58.5199 95.7192 58.5145 95.7904 58.5089 95.8747C58.5059 95.9024 58.5045 95.9317 58.5016 95.9621C58.4972 96.0188 58.493 96.0798 58.4871 96.1453C58.4801 96.2472 58.4714 96.3606 58.4613 96.484C58.4559 96.5523 58.45 96.6238 58.4442 96.6979L58.44 96.7503C58.4372 96.7941 58.4329 96.8403 58.4301 96.887C58.4186 97.0323 58.4071 97.1864 58.3942 97.3493C58.3898 97.39 58.387 97.4324 58.3841 97.4757C58.3811 97.5108 58.3785 97.5458 58.3757 97.5805C58.3626 97.7418 58.3499 97.9107 58.3368 98.0881C58.3326 98.1434 58.3281 98.1986 58.3241 98.2539C58.3197 98.3105 58.3154 98.3703 58.3096 98.4296L58.3009 98.5518C58.2955 98.6145 58.2911 98.6771 58.2868 98.7409C58.2796 98.8255 58.2737 98.9112 58.2667 98.997C58.2624 99.0553 58.2582 99.1134 58.254 99.173C58.2467 99.259 58.2411 99.3459 58.2338 99.4331C58.2237 99.5464 58.2153 99.6629 58.2066 99.7794C58.1949 99.9335 58.1839 100.089 58.1708 100.248C58.1651 100.326 58.1593 100.405 58.1536 100.483C58.1494 100.543 58.1449 100.603 58.1393 100.662C58.1351 100.712 58.1323 100.761 58.1278 100.81C58.125 100.861 58.1208 100.912 58.1163 100.961C58.1063 101.107 58.095 101.254 58.0835 101.404C58.0633 101.662 58.0448 101.924 58.0235 102.19C58.0104 102.362 57.9977 102.535 57.9846 102.71C57.9501 103.176 57.9144 103.652 57.8785 104.132C57.8675 104.28 57.8558 104.43 57.8457 104.578C57.8342 104.725 57.8232 104.872 57.8127 105.019C57.8014 105.166 57.7913 105.313 57.7801 105.46C57.7714 105.572 57.7641 105.682 57.7557 105.793C57.7311 106.136 57.7053 106.477 57.6811 106.816C57.6654 107.029 57.6511 107.239 57.6354 107.45C57.6312 107.503 57.6281 107.553 57.6237 107.604C57.6166 107.711 57.608 107.817 57.6009 107.923C57.5782 108.24 57.5566 108.554 57.5338 108.864C57.5263 108.967 57.5193 109.069 57.5123 109.172C57.4851 109.555 57.4593 109.93 57.4351 110.295C57.4203 110.494 57.4077 110.69 57.3948 110.884C57.3802 111.077 57.3674 111.266 57.3561 111.451C57.3073 110.835 57.247 110.244 57.1816 109.68C57.1685 109.574 57.1558 109.469 57.1427 109.364C57.1127 109.121 57.0813 108.884 57.0484 108.653C57.0353 108.56 57.0226 108.468 57.0095 108.377C56.9853 108.208 56.9595 108.044 56.9337 107.882C56.9208 107.798 56.9079 107.717 56.8951 107.635C56.8123 107.13 56.7276 106.662 56.6432 106.233C56.6331 106.181 56.623 106.13 56.6129 106.08C56.2708 104.353 55.9502 103.294 55.92 103.197C55.92 103.194 55.9195 103.192 55.9186 103.189C55.273 101.034 54.9294 99.5595 54.7472 98.6378C54.7416 98.6087 54.736 98.5811 54.7301 98.5535C54.7186 98.4896 54.7074 98.4284 54.6956 98.3718C54.6771 98.267 54.6598 98.171 54.6457 98.0838C54.6429 98.0693 54.6415 98.0562 54.6384 98.0431C54.6342 98.0154 54.6302 97.9907 54.6257 97.9659C54.5624 97.5719 54.55 97.3928 54.55 97.3928C54.4577 96.1228 54.6158 94.8469 55.015 93.6397C55.0267 93.6018 55.0394 93.5656 55.0509 93.5306C55.0626 93.4956 55.0737 93.4622 55.0837 93.4287C55.1524 93.2267 55.2127 93.0709 55.2514 92.9735C55.2584 92.9547 55.2657 92.9387 55.2716 92.9242C55.2741 92.9178 55.2769 92.9115 55.28 92.9054V92.9037C55.2823 92.8991 55.2842 92.8942 55.2856 92.8892C55.2882 92.8851 55.2902 92.8807 55.2915 92.8761V92.8747C55.2926 92.8711 55.294 92.8677 55.2957 92.8644C55.2971 92.863 55.2971 92.863 55.2971 92.8616C55.298 92.8603 55.2986 92.8588 55.2988 92.8573C55.6556 92.1195 56.1873 91.4834 56.8463 91.0062C56.8737 90.9857 56.9009 90.9666 56.9265 90.9481C57.1099 90.8137 57.304 90.695 57.5066 90.5929C57.9921 90.3474 58.4664 90.1118 58.9296 89.8863C59.1601 89.7741 59.3878 89.6653 59.6127 89.5576C60.744 89.0193 61.8089 88.5427 62.8055 88.1193C63.3024 87.9087 63.7831 87.7106 64.2475 87.5248C64.3418 87.4869 64.4351 87.449 64.528 87.4126C64.6183 87.3764 64.7071 87.3414 64.7958 87.3066C64.7973 87.305 64.7992 87.304 64.8014 87.3038C64.9806 87.2354 65.1553 87.167 65.3283 87.1015C65.3311 87.1015 65.3326 87.1015 65.3342 87.1001C65.42 87.0665 65.5044 87.0346 65.5877 87.0025C65.5899 87.0011 65.5922 87.0002 65.5947 86.9998C67.0538 86.4513 68.3138 86.0355 69.3677 85.717C69.3702 85.7154 69.3731 85.7144 69.3761 85.7142C69.684 85.6225 69.9732 85.5381 70.2438 85.461C70.4112 85.4131 70.573 85.3681 70.7262 85.3274C71.3776 85.1516 71.9059 85.022 72.3086 84.926C72.3086 84.9262 72.3086 84.9264 72.3085 84.9266C72.3084 84.9268 72.3083 84.9269 72.3082 84.927C72.3081 84.9272 72.3079 84.9273 72.3077 84.9274C72.3076 84.9274 72.3074 84.9275 72.3072 84.9275L60.3559 91.7769L60.3542 91.7781C60.3528 91.7781 60.3514 91.7798 60.3486 91.7812C60.3327 91.7898 60.29 91.816 60.2269 91.8567C60.2098 91.8684 60.1896 91.8815 60.1697 91.896C60.1408 91.915 60.1094 91.9367 60.0766 91.9601C60.0606 91.9703 60.0451 91.9817 60.0292 91.9934C59.9577 92.0472 59.8791 92.1099 59.7959 92.1796C59.7659 92.2044 59.7356 92.2304 59.7042 92.2597C59.6943 92.2685 59.6828 92.2771 59.6725 92.2873C59.6528 92.3059 59.6327 92.3249 59.6127 92.344C59.6024 92.3542 59.5914 92.3642 59.5813 92.3745C59.5705 92.3839 59.5604 92.3941 59.551 92.405C59.5468 92.4092 59.541 92.4138 59.537 92.418C59.521 92.434 59.5039 92.45 59.4894 92.4676C59.4872 92.469 59.4853 92.471 59.484 92.4733C59.4622 92.4952 59.4422 92.5169 59.4209 92.5402C59.4021 92.5605 59.385 92.581 59.3679 92.6012C59.3407 92.6317 59.3135 92.6624 59.2891 92.6943" fill="black"/>
<path d="M73.4123 84.2909C73.2362 84.0582 70.7849 82.8454 70.7849 82.8454C69.0381 81.9408 67.4003 81.2749 67.4003 81.2749C66.3946 80.8678 65.3667 80.5197 64.3217 80.2322C64.1142 80.1769 63.9378 80.1362 63.7936 80.1043C63.6224 80.0643 63.4494 80.0332 63.2751 80.0112C63.1667 79.9874 63.0536 80.0018 62.9543 80.0519L62.9529 80.0531C62.9484 80.0552 62.9441 80.0577 62.94 80.0605L52.6424 88.7453C52.3869 88.9595 52.0907 89.1179 51.7722 89.2107L50.7368 89.3907C50.5338 89.3987 50.3306 89.3832 50.1311 89.3443C48.8432 89.0701 47.5373 88.8922 46.2238 88.812C46.0429 88.8022 45.8615 88.8056 45.6811 88.8222C45.21 88.8279 44.8376 89.718 44.8493 90.81C44.8622 91.9023 45.2529 92.7835 45.7254 92.7776C46.0338 92.789 46.3383 92.8504 46.6276 92.9595C46.8222 93.0904 46.9612 93.2908 47.0171 93.5209C47.2361 94.1823 46.4585 94.8206 46.4585 94.8206C46.1994 95.0274 45.5308 95.7167 45.5308 95.7167L30 112.996L56.8136 113H56.8189C56.8061 112.969 56.7948 112.939 56.7833 112.908C56.7418 112.804 56.7003 112.699 56.6585 112.597C56.6431 112.561 56.6271 112.524 56.6128 112.488C56.5844 112.42 56.5556 112.353 56.5284 112.286C56.4927 112.205 56.4583 112.123 56.424 112.045C56.3895 111.966 56.3565 111.89 56.3237 111.816C56.3108 111.787 56.2979 111.758 56.285 111.731C56.262 111.68 56.2392 111.63 56.2191 111.582C56.2158 111.576 56.213 111.571 56.2106 111.565C56.1977 111.538 56.1862 111.512 56.1747 111.487C56.1717 111.482 56.1693 111.476 56.1677 111.47C56.1363 111.4 56.106 111.336 56.0774 111.277C56.0615 111.243 56.046 111.211 56.0331 111.181C56.0129 111.138 55.9943 111.099 55.9773 111.063C55.9672 111.042 55.9585 111.022 55.9487 111.003C55.9271 110.96 55.9083 110.923 55.8957 110.894C55.8889 110.879 55.8812 110.864 55.8727 110.849C55.8727 110.848 55.8713 110.846 55.8713 110.845C55.864 110.829 55.8598 110.82 55.8598 110.82L52.4778 103.971C52.429 103.864 52.3805 103.76 52.3333 103.657V103.655C52.2386 103.447 52.1516 103.242 52.07 103.041V103.04C51.9867 102.838 51.9093 102.642 51.8362 102.448C51.7276 102.156 51.6289 101.874 51.54 101.602C50.6207 98.7793 50.7581 96.9875 50.7581 96.9875C50.7823 95.9957 50.9492 95.0128 51.2537 94.0701C51.2595 94.0544 51.2637 94.0399 51.268 94.0268C51.2867 93.9729 51.298 93.9394 51.3022 93.9279C51.3029 93.9265 51.3034 93.925 51.3036 93.9234C52.0496 91.6405 55.2081 90.2067 55.2081 90.2067C57.8282 88.9315 60.5369 87.8534 63.3124 86.9811C63.3134 86.9809 63.3143 86.9804 63.315 86.9796C65.619 86.2351 67.8111 85.633 69.5723 85.1867C69.5743 85.1869 69.5763 85.1863 69.5779 85.185C69.7568 85.14 69.9301 85.0964 70.1006 85.054C70.1026 85.0542 70.1045 85.0538 70.1062 85.0528C70.5759 84.938 71.0081 84.8335 71.3962 84.7415C71.3983 84.7418 71.4004 84.7414 71.4021 84.7403C71.5423 84.7082 71.6767 84.6777 71.8043 84.647C71.805 84.6471 71.8058 84.647 71.8065 84.6468C71.8072 84.6466 71.8079 84.6463 71.8085 84.6458C71.8732 84.6296 71.9347 84.6165 71.9947 84.6036C71.9963 84.6036 71.9979 84.603 71.9991 84.602C72.2454 84.5467 72.4672 84.4972 72.6593 84.4552C72.6851 84.4495 72.7109 84.4433 72.7336 84.4376C73.0373 84.3724 73.2662 84.3243 73.4078 84.2952C73.4087 84.2944 73.4097 84.2939 73.4109 84.2938H73.4139C73.4139 84.2923 73.4123 84.2924 73.4123 84.2909ZM46.2036 92.0025C45.91 92.0025 45.671 91.4659 45.671 90.8057C45.671 90.1441 45.91 89.6075 46.2036 89.6075C46.4972 89.6075 46.7364 90.1441 46.7364 90.8057C46.7364 91.4659 46.4972 92.0025 46.2036 92.0025Z" fill="black"/>
<path d="M72.3179 84.9216L72.3095 84.9262C72.3095 84.9263 72.3095 84.9265 72.3094 84.9267C72.3093 84.9268 72.3092 84.927 72.3091 84.9271C72.3089 84.9272 72.3088 84.9273 72.3086 84.9273C72.3085 84.9274 72.3083 84.9274 72.3081 84.9274L60.3565 91.7768L60.3551 91.7782C60.3537 91.7782 60.3523 91.7799 60.3495 91.7811C60.3338 91.7899 60.2909 91.8161 60.2278 91.8568C60.2107 91.8685 60.1905 91.8816 60.1706 91.8961C60.142 91.9149 60.1103 91.9366 60.0777 91.9602C60.0618 91.9716 60.0461 91.9833 60.0301 91.9935C59.9586 92.0474 59.8798 92.11 59.797 92.1795C59.7768 92.1969 59.7553 92.2146 59.7353 92.2334C59.7253 92.2422 59.7152 92.2496 59.7051 92.2596C59.6952 92.2684 59.6837 92.2772 59.6737 92.2872C59.6638 92.296 59.6535 92.306 59.6436 92.3163C59.6336 92.3251 59.6237 92.3353 59.6136 92.3439C59.6035 92.3541 59.5923 92.3644 59.582 92.3746C59.5719 92.3846 59.5623 92.3949 59.5522 92.4051C59.5477 92.4094 59.5419 92.4139 59.5376 92.4182C59.5211 92.4339 59.5054 92.4504 59.4905 92.4677C59.4875 92.4689 59.4861 92.472 59.4847 92.4732C59.4633 92.4954 59.4431 92.517 59.4216 92.5404C59.4033 92.5606 59.3859 92.5811 59.3688 92.6014C59.3416 92.6318 59.3144 92.6626 59.29 92.6945C59.2871 92.6987 59.2837 92.7025 59.2799 92.7059V92.7076L60.5186 93.7225C60.7993 93.938 60.7247 94.1095 60.7247 94.1095C60.6975 94.2229 60.4883 94.31 60.4883 94.31L58.5741 95.197C58.5612 95.3061 58.5483 95.4154 58.537 95.5214C58.537 95.5214 58.537 95.5288 58.5354 95.5447C58.5355 95.5495 58.5351 95.5543 58.534 95.559C58.5341 95.5649 58.5337 95.5708 58.5328 95.5766C58.533 95.5835 58.5325 95.5904 58.5312 95.5971C58.5297 95.6159 58.5283 95.6393 58.5253 95.6655C58.5225 95.7205 58.5166 95.7905 58.5096 95.8748C58.507 95.9025 58.5054 95.9315 58.5025 95.962C58.4983 96.0173 58.4939 96.0799 58.4882 96.1452C58.481 96.2471 58.4723 96.3605 58.4624 96.4841C58.4568 96.5525 58.4509 96.6237 58.4453 96.698C58.4439 96.7154 58.4423 96.7328 58.4409 96.7504C58.4378 96.7954 58.4352 96.8404 58.431 96.8869C58.4193 97.0324 58.4083 97.1865 58.3951 97.3494C58.3909 97.3901 58.3879 97.4323 58.385 97.4759C58.3822 97.5106 58.3792 97.5459 58.3766 97.5807C58.3651 97.7419 58.352 97.9108 58.3379 98.0882C58.3335 98.1435 58.3292 98.1985 58.325 98.2537C58.3208 98.3121 58.3163 98.3702 58.3107 98.4298L58.302 98.5519C58.2964 98.6143 58.2922 98.677 58.2877 98.741C58.2805 98.8254 58.2748 98.9113 58.2678 98.9971C58.2633 99.0552 58.2591 99.1133 58.2547 99.1731C58.2476 99.2588 58.242 99.346 58.2347 99.4332C58.2246 99.5466 58.2164 99.663 58.2078 99.7795C58.196 99.9336 58.1845 100.089 58.1719 100.248C58.1658 100.326 58.1604 100.405 58.1548 100.483C58.1503 100.543 58.1461 100.603 58.1402 100.662C58.136 100.712 58.1332 100.761 58.129 100.811C58.1259 100.861 58.1215 100.912 58.1172 100.962C58.1074 101.107 58.0959 101.254 58.0846 101.404C58.0642 101.663 58.0457 101.924 58.0241 102.191C58.0115 102.362 57.9987 102.535 57.9857 102.71C57.9512 103.176 57.9156 103.652 57.8797 104.132C57.8682 104.28 57.8567 104.43 57.8469 104.578C57.8354 104.725 57.8253 104.872 57.8136 105.019C57.8025 105.166 57.7922 105.313 57.781 105.46C57.7723 105.571 57.765 105.682 57.7566 105.793C57.7322 106.136 57.7064 106.477 57.682 106.816C57.6663 107.029 57.6506 107.24 57.6363 107.45C57.6318 107.503 57.629 107.554 57.6248 107.604C57.6178 107.711 57.6091 107.817 57.6018 107.923C57.5788 108.24 57.5575 108.554 57.5345 108.864C57.5275 108.967 57.5202 109.069 57.5134 109.172C57.4862 109.555 57.4604 109.93 57.4358 110.295C57.4215 110.494 57.4086 110.69 57.3957 110.884C57.3814 111.077 57.3685 111.266 57.357 111.451C57.3554 111.466 57.3553 111.478 57.3544 111.492C57.2383 110.013 57.0606 108.669 56.8702 107.516C56.8286 107.26 56.7843 107.013 56.7412 106.776C56.7072 106.588 56.6727 106.408 56.6382 106.233C56.6282 106.181 56.6183 106.13 56.608 106.08C56.2661 104.353 55.9453 103.294 55.9153 103.197C55.9152 103.194 55.9147 103.192 55.9136 103.189C55.7964 102.797 55.688 102.427 55.5886 102.079C55.5572 101.964 55.5257 101.85 55.4959 101.74C55.4643 101.627 55.4343 101.518 55.404 101.411C55.3768 101.306 55.3499 101.203 55.3227 101.103C55.0933 100.236 54.9303 99.5408 54.8142 98.9954C54.8084 98.9635 54.8013 98.9313 54.7957 98.9008C54.777 98.808 54.7584 98.7208 54.7425 98.6377C54.7369 98.6088 54.7312 98.5812 54.7254 98.5536C54.7141 98.4895 54.7024 98.4283 54.6909 98.3716C54.6726 98.2668 54.6552 98.1711 54.641 98.0837C54.6379 98.0691 54.6367 98.056 54.6337 98.0432C54.6295 98.0156 54.6252 97.9905 54.6208 97.966C54.5579 97.5718 54.545 97.393 54.545 97.393C54.4529 96.1229 54.611 94.8468 55.0103 93.6396C55.0218 93.6019 55.0347 93.5655 55.0462 93.5307C55.0577 93.4957 55.0689 93.4623 55.079 93.4288C55.2005 93.0696 55.2938 92.8574 55.2938 92.8574C55.7764 91.8825 56.5515 91.0886 57.5073 90.5902C60.285 89.1812 62.722 88.1151 64.7967 87.3065C64.7983 87.305 64.8003 87.304 64.8025 87.3036C65.0701 87.1991 65.332 87.0987 65.5883 87.0026C65.5906 87.0013 65.5931 87.0003 65.5956 86.9997C67.0549 86.45 68.3147 86.0341 69.3683 85.7171C69.3709 85.7156 69.3738 85.7145 69.3768 85.714C69.6849 85.6212 69.9726 85.5368 70.2447 85.4611C70.4123 85.4132 70.5739 85.3682 70.7273 85.3275C71.383 85.1486 71.9141 85.019 72.3179 84.9216" fill="black"/>
<path d="M56.7412 106.776C56.7858 107.013 56.8287 107.259 56.8699 107.516C56.8287 107.26 56.7843 107.013 56.7412 106.776Z" fill="black"/>
<path d="M70.7284 85.3275C71.384 85.1486 71.9154 85.0193 72.319 84.9216L72.3106 84.9259C72.3106 84.9259 72.3106 84.9276 72.3092 84.9276C69.9402 85.4948 67.6108 86.2206 65.3361 87.1002C65.3347 87.1014 65.3333 87.1014 65.3305 87.1014C65.0697 87.2019 64.8036 87.3051 64.5301 87.4127C64.437 87.4489 64.344 87.487 64.2497 87.5247C63.7856 87.7109 63.3049 87.9092 62.8077 88.1196C61.8111 88.5428 60.7468 89.0222 59.6149 89.5577C59.3898 89.6651 59.162 89.7747 58.9316 89.8864C58.4677 90.1117 57.9934 90.3473 57.5086 90.5933C57.3061 90.6953 57.1121 90.8139 56.9287 90.9479C56.9029 90.9656 56.8757 90.9844 56.8482 91.0063C56.1865 91.4832 55.6526 92.1205 55.2949 92.8603C55.2949 92.8603 55.202 93.0713 55.0801 93.429C55.202 93.0696 55.2949 92.8572 55.2949 92.8572C55.7776 91.8823 56.5528 91.0885 57.5086 90.5902C60.2863 89.1812 62.7231 88.1153 64.7977 87.3067C64.7993 87.3051 64.8013 87.304 64.8036 87.3036C65.0711 87.1988 65.3332 87.0986 65.5896 87.0028C65.5918 87.0014 65.5943 87.0004 65.5969 87C67.056 86.45 68.3158 86.0341 69.3699 85.7171C69.3724 85.7155 69.3753 85.7145 69.3783 85.7143C69.6862 85.6212 69.9737 85.5368 70.246 85.4613C70.4134 85.4132 70.5752 85.368 70.7284 85.3275" fill="black"/>
<path d="M56.7843 112.908C56.7958 112.939 56.807 112.969 56.8199 113H56.8145C56.3704 111.855 55.8549 110.823 55.8549 110.823L52.4732 103.973C50.5373 99.8187 50.7533 96.9872 50.7533 96.9872C50.7794 95.9436 50.9634 94.9102 51.299 93.9234C52.0449 91.6402 55.2035 90.2064 55.2035 90.2064C62.1967 86.6871 72.0173 84.5816 73.4077 84.2935L73.4091 84.2949C72.0044 84.5859 62.195 86.69 55.2091 90.2064C55.2091 90.2064 52.0506 91.6402 51.3046 93.9233C51.3044 93.9249 51.304 93.9265 51.3032 93.9279C51.299 93.9393 51.2875 93.9729 51.2687 94.0265C51.2647 94.0396 51.2603 94.0543 51.2547 94.0701C50.9502 95.0127 50.7833 95.9955 50.7591 96.9872C50.7591 96.9872 50.6217 98.7788 51.5408 101.602C51.6296 101.873 51.7285 102.156 51.8374 102.448C51.9103 102.642 51.9877 102.838 52.0707 103.04V103.041C52.1526 103.242 52.2396 103.447 52.3341 103.655V103.656C52.3815 103.76 52.43 103.864 52.4788 103.971L55.8608 110.82C55.8608 110.82 55.865 110.829 55.8723 110.845C55.8723 110.846 55.8737 110.847 55.8737 110.849C55.8823 110.864 55.8899 110.879 55.8967 110.894C55.9094 110.923 55.9281 110.96 55.9494 111.003C55.9595 111.022 55.9682 111.042 55.9783 111.063C55.9954 111.099 56.0139 111.138 56.0339 111.18C56.0468 111.211 56.0625 111.243 56.0782 111.277C56.1071 111.336 56.1373 111.4 56.1687 111.47C56.1705 111.476 56.1728 111.482 56.1755 111.487C56.1872 111.512 56.1985 111.538 56.2114 111.565C56.2139 111.571 56.2168 111.576 56.2201 111.582C56.2403 111.63 56.263 111.679 56.286 111.73C56.2989 111.758 56.3118 111.787 56.3247 111.816C56.3577 111.89 56.3906 111.966 56.4248 112.044C56.4593 112.123 56.4938 112.204 56.5294 112.286C56.5566 112.353 56.5852 112.42 56.6138 112.488C56.6281 112.524 56.6438 112.561 56.6595 112.597C56.7011 112.699 56.7428 112.804 56.7843 112.908" fill="black"/>
</svg>
