<svg width="194" height="194" viewBox="0 0 194 194" fill="none" xmlns="http://www.w3.org/2000/svg">
<path d="M160.483 104.501H160.635C160.808 104.501 160.938 104.434 160.938 104.302C160.938 104.192 160.851 104.104 160.656 104.104C160.57 104.104 160.526 104.104 160.483 104.126V104.501V104.501ZM160.483 105.249H160.18V103.95C160.288 103.928 160.461 103.906 160.678 103.906C160.916 103.906 161.025 103.95 161.133 103.994C161.198 104.06 161.263 104.148 161.263 104.28C161.263 104.434 161.155 104.545 161.003 104.589V104.611C161.133 104.655 161.198 104.765 161.241 104.919C161.285 105.117 161.306 105.205 161.328 105.249H161.003C160.96 105.205 160.938 105.073 160.895 104.941C160.873 104.787 160.786 104.743 160.635 104.743H160.505V105.249H160.483ZM159.681 104.567C159.681 105.139 160.115 105.601 160.678 105.601C161.241 105.601 161.653 105.139 161.653 104.567C161.653 103.994 161.241 103.51 160.656 103.51C160.115 103.51 159.681 103.972 159.681 104.567ZM162 104.567C162 105.315 161.436 105.887 160.678 105.887C159.941 105.887 159.356 105.315 159.356 104.567C159.356 103.84 159.941 103.268 160.678 103.268C161.436 103.246 162 103.84 162 104.567Z" fill="black"/>
<path d="M89.8045 105.491H92.2529V84.2512H89.7828V105.491H89.8045ZM83.0877 105.491H85.5577V84.2512H83.0877V105.491ZM155.283 105.491V96.0488C155.283 93.8037 154.395 92.4831 152.076 92.4831C150.668 92.4831 149.519 93.4296 148.891 94.7722C148.393 95.8507 148.371 97.4134 148.371 98.58V105.491H145.901V90.5902H148.046L148.241 92.8353C148.999 91.1185 151.014 90.216 152.661 90.216C155.998 90.216 157.731 92.241 157.731 95.6966V105.491H155.283ZM139.726 98.3159L135.782 98.558C134.309 98.646 132.576 99.3504 132.576 101.243C132.576 102.564 133.377 103.796 135.479 103.796C136.606 103.796 137.711 103.422 138.491 102.586C139.357 101.683 139.726 100.429 139.726 99.1963V98.3159ZM141.979 105.711C140.679 105.711 139.856 104.721 139.856 103.444H139.791C138.946 104.941 137.126 105.887 135.067 105.887C131.709 105.887 130.041 103.598 130.041 101.287C130.041 99.3724 131.254 96.8632 135.241 96.6431L139.704 96.3789V95.2784C139.704 94.5521 139.617 93.6276 138.946 93.0114C138.447 92.5491 137.732 92.241 136.541 92.241C135.219 92.241 134.374 92.6152 133.876 93.1214C133.421 93.5836 133.161 94.1779 133.161 94.9263H130.756C130.777 93.5616 131.276 92.5932 132.034 91.8008C133.009 90.7443 134.764 90.216 136.541 90.216C139.379 90.216 141.004 91.4486 141.698 93.0774C141.979 93.7597 142.131 94.5301 142.131 95.3665V102.586C142.131 103.378 142.456 103.598 142.933 103.598C143.193 103.598 143.561 103.51 143.561 103.51V105.359C143.084 105.623 142.586 105.711 141.979 105.711ZM125.035 105.491H127.57V90.5902H125.057V105.491H125.035ZM124.97 88.4552H127.657V85.858H124.97V88.4552ZM120.702 104.259C119.662 105.293 118.275 105.887 116.477 105.887C113.833 105.887 112.165 104.655 111.125 103.092C110.345 101.926 109.912 100.297 109.912 98.0517C109.912 95.8067 110.345 94.1999 111.125 93.0114C112.165 91.4486 113.812 90.216 116.455 90.216C118.189 90.216 119.619 90.8103 120.615 91.8008C121.59 92.7692 122.24 94.0018 122.349 95.6306H119.857C119.749 94.5961 119.359 93.8698 118.817 93.2975C118.232 92.7472 117.409 92.3951 116.434 92.3951C115.307 92.3951 114.527 92.8133 113.877 93.3635C112.728 94.354 112.403 96.2249 112.403 98.0517C112.403 99.8786 112.728 101.727 113.877 102.74C114.505 103.29 115.285 103.708 116.434 103.708C117.452 103.708 118.34 103.334 118.925 102.718C119.445 102.168 119.792 101.485 119.9 100.517H122.392C122.284 102.08 121.677 103.29 120.702 104.259ZM105.102 105.491L104.907 103.224C104.148 104.941 102.263 105.843 100.573 105.843C97.2364 105.843 95.568 103.818 95.568 100.363V90.5902H98.0381V100.011C98.0381 102.256 98.8397 103.576 101.158 103.576C102.133 103.576 102.957 103.136 103.585 102.454C104.517 101.485 104.798 99.8566 104.798 98.3379V90.5902H107.268V105.491H105.102ZM76.9125 93.6937C76.3058 92.8793 75.3308 92.329 74.0091 92.329C71.344 92.329 70.044 94.5301 69.979 96.7091H77.8008C77.8008 95.6086 77.4975 94.4861 76.9125 93.6937ZM80.2926 98.8661H69.9356C69.9356 100.231 70.4557 101.683 71.344 102.608C72.0157 103.29 72.9041 103.664 74.0307 103.664C75.1791 103.664 76.1541 103.334 76.7608 102.696C77.1725 102.278 77.4325 101.882 77.6275 101.067H80.0326C79.8376 102.542 78.9709 103.929 77.7792 104.743C76.7392 105.447 75.4391 105.865 74.0524 105.865C71.994 105.865 70.3257 104.985 69.199 103.62C67.9856 102.168 67.3789 100.209 67.3789 98.0958C67.3789 96.2909 67.7039 94.7062 68.5056 93.3195C69.5456 91.5146 71.4957 90.194 74.0307 90.194C75.9158 90.194 77.4108 90.9204 78.4942 92.1089C79.6859 93.4296 80.3793 95.3445 80.3576 97.3474L80.2926 98.8661Z" fill="black"/>
<path d="M54.4876 100.275C52.4292 105.447 46.644 107.956 41.5522 105.865C36.4604 103.774 34.012 97.8757 36.0704 92.7032C37.9121 88.081 42.7223 85.5938 47.359 86.6063C47.9224 86.7164 48.4641 86.8925 49.0057 87.1126C49.5474 87.3327 50.0458 87.6188 50.5441 87.9049L49.2441 91.1625L46.2107 98.8221L43.0473 97.5235L46.0807 89.8639C43.2206 89.5117 40.3605 91.1185 39.2122 93.9798C37.8471 97.3914 39.4722 101.287 42.8306 102.652C46.189 104.039 50.0024 102.388 51.3675 98.9762C52.0175 97.3474 51.9742 95.6086 51.3891 94.0678L52.9709 90.084C55.1809 92.8573 55.8743 96.7311 54.4876 100.275ZM50.2408 83.9871C43.4589 81.1918 35.7237 84.5373 32.972 91.4486C30.2203 98.3599 33.5137 106.218 40.2955 109.013C47.0774 111.808 54.8126 108.463 57.5643 101.551C60.2944 94.6401 57.0226 86.7824 50.2408 83.9871Z" fill="black"/>
</svg>
