<svg width="194" height="194" viewBox="0 0 194 194" fill="none" xmlns="http://www.w3.org/2000/svg">
<path d="M110.723 99.9016C109.245 100.25 108.504 100.273 107.578 100.148C107.455 102.597 106.118 104.726 104.169 105.929C104.144 105.945 104.118 105.961 104.093 105.976C104.076 105.987 104.058 105.997 104.041 106.007C102.993 106.637 101.773 107 100.469 107C97.4834 107 94.9335 105.104 93.9076 102.429C93.5865 101.611 93.4076 100.719 93.4063 99.786C93.4034 97.5559 94.4058 95.5583 95.9781 94.2352C95.5155 93.4332 95.2453 92.5019 95.2453 91.504C95.2453 88.5223 97.6149 86.105 100.538 86.105C103.461 86.105 105.83 88.5223 105.83 91.504C105.83 92.1446 105.718 92.7574 105.516 93.3263L105.514 93.3254C102.002 89.1181 98.6476 89.9254 98.6476 89.9254C97.6167 89.9955 98.0799 90.8069 98.0799 90.8069L100.93 96.6163C100.796 96.5987 100.66 96.5864 100.521 96.5864C98.7651 96.5864 97.3417 98.0383 97.3417 99.8292C97.3417 101.62 98.7651 103.072 100.521 103.072C102.276 103.072 103.699 101.62 103.699 99.8292C103.699 99.196 103.519 98.6072 103.211 98.1079L103.218 98.0938L100.437 92.5791C102.389 92.5596 104.212 93.7143 105.049 94.3342C105.414 94.607 105.776 94.9119 106.126 95.2546C107.277 96.38 109.217 96.7278 111.72 95.8211C111.72 95.8211 110.985 97.3933 110.723 99.9016Z" fill="black"/>
<path d="M126.665 106.603H122.725L122.063 102.921H118.371L117.737 106.603H113.797L118.04 86.3643H122.477L126.665 106.603ZM119.39 96.6525L118.95 99.2386H121.485L121.044 96.6525C120.741 94.9657 120.465 92.436 120.217 90.3276C119.969 92.3798 119.694 94.8815 119.39 96.6525Z" fill="black"/>
<path d="M133.466 86.3643C136.635 86.3643 138.564 88.2476 138.564 92.9699C138.564 95.9777 137.902 97.7767 136.607 98.9572L139.253 106.603H135.037L133.053 100.082H131.813V106.603H127.955V86.3643H133.466ZM131.813 90.0185V96.821H132.942C133.962 96.821 134.651 96.0339 134.651 93.3635C134.651 90.8901 134.045 90.0185 133.025 90.0185H131.813Z" fill="black"/>
<path d="M150.163 90.103H146.719V106.603H142.861V90.103H139.417V86.3643H150.163V90.103Z" fill="black"/>
<path d="M160.087 87.1244L159.04 90.3851C158.434 89.9354 157.663 89.6825 156.946 89.6825C155.844 89.6825 155.127 90.1603 155.127 91.5939C155.127 92.8024 156.037 93.7863 157.359 95.1918C158.737 96.5973 160.17 98.3118 160.17 101.011C160.17 104.833 158.406 106.942 154.962 106.942C153.254 106.942 151.628 106.351 150.36 105.48L151.518 102.079C152.344 102.556 153.364 102.95 154.218 102.95C155.348 102.95 155.982 102.416 155.982 101.067C155.982 99.7737 154.934 98.7335 153.722 97.4126C152.317 95.9507 150.967 94.0675 150.967 91.5657C150.967 87.8273 152.868 86 156.312 86C157.718 86 158.93 86.3937 160.087 87.1244Z" fill="black"/>
<path d="M47.7889 106.66H44.2618L43.7658 94.0951H43.7109C43.518 95.7536 43.27 97.3559 43.022 98.7614L41.6167 106.66H38.1997L36.7669 98.7331C36.519 97.2997 36.2433 95.7816 36.1057 94.0951H36.0504L35.5544 106.66H32L32.7715 86.4211H37.4557L39.3846 97.7774C39.6326 99.1829 39.7428 100.42 39.9081 101.853H39.9632C40.101 100.42 40.2665 99.2108 40.5145 97.7494L42.3881 86.4211H47.0449L47.7889 106.66Z" fill="black"/>
<path d="M60.3443 100.42C60.3443 105.563 58.3879 106.997 54.8059 106.997C51.2513 106.997 49.2949 105.563 49.2949 100.42V86.4211H53.1526V100.363C53.1526 102.781 53.6486 103.315 54.8059 103.315C55.9908 103.315 56.4868 102.753 56.4868 100.363V86.4211H60.3443V100.42Z" fill="black"/>
<path d="M71.2279 87.181L70.1807 90.4418C69.5744 89.992 68.803 89.7392 68.0868 89.7392C66.9844 89.7392 66.268 90.2169 66.268 91.6505C66.268 92.8591 67.1774 93.8429 68.4999 95.2484C69.8775 96.6539 71.3107 98.3685 71.3107 101.067C71.3107 104.89 69.547 106.998 66.1027 106.998C64.3944 106.998 62.7685 106.408 61.501 105.537L62.6581 102.135C63.4851 102.613 64.5045 103.007 65.3587 103.007C66.4886 103.007 67.1222 102.473 67.1222 101.123C67.1222 99.8303 66.0751 98.7901 64.8628 97.4691C63.4574 96.0074 62.1073 94.1242 62.1073 91.6224C62.1073 87.8839 64.0085 86.0566 67.4529 86.0566C68.8582 86.0566 70.0704 86.4503 71.2279 87.181Z" fill="black"/>
<path d="M76.5734 86.4211H72.7158V106.66H76.5734V86.4211Z" fill="black"/>
<path d="M87.9307 101.943C86.8212 102.625 85.7642 103.035 84.7344 103.035C82.9709 103.035 82.2819 101.264 82.2819 96.4571C82.2819 91.5663 82.9156 89.7951 84.2107 89.7951C85.2854 89.7951 85.4783 91.1447 85.5611 93.8147H85.6906C86.9759 93.5367 88.1659 93.3193 89.2703 93.1572C89.1423 88.1273 87.8016 86.0566 84.1282 86.0566C79.7468 86.0566 78.2314 89.7673 78.2314 96.4571C78.2314 104.356 80.105 106.998 84.1558 106.998C85.7614 106.998 87.5175 106.407 89.0648 105.276C88.5035 104.259 88.1116 103.136 87.9307 101.943Z" fill="black"/>
<path d="M161.343 87.078C161.423 87.078 161.467 87.0372 161.467 86.9761C161.467 86.9108 161.419 86.874 161.343 86.874H161.191V87.078H161.343ZM161.015 86.7189H161.355C161.523 86.7189 161.647 86.7965 161.647 86.9638C161.647 87.0821 161.583 87.1595 161.487 87.1922L161.671 87.4575H161.459L161.303 87.2249H161.191V87.4575H161.015V86.7189ZM161.919 87.1024V87.0984C161.919 86.7516 161.655 86.466 161.303 86.466C160.955 86.466 160.687 86.7558 160.687 87.1024V87.1066C160.687 87.4533 160.951 87.7389 161.303 87.7389C161.651 87.7389 161.919 87.4492 161.919 87.1024ZM160.607 87.1066V87.1024C160.607 86.7149 160.915 86.3884 161.303 86.3884C161.695 86.3884 161.999 86.7108 161.999 87.0984V87.1024C161.999 87.49 161.691 87.8166 161.303 87.8166C160.911 87.8166 160.607 87.4942 160.607 87.1066Z" fill="black"/>
</svg>
