<svg width="194" height="194" viewBox="0 0 194 194" fill="none" xmlns="http://www.w3.org/2000/svg">
<path d="M46.4575 79L43.0641 89.3351H32L40.9319 95.7268L37.5776 106.113L46.4575 99.7217L55.3764 106.113L51.983 95.7268L60.8629 89.3351H49.8508L46.4575 79Z" fill="black"/>
<path d="M91.9108 88.4201C91.2347 87.75 90.5067 87.2603 89.5836 86.9768C88.7125 86.6418 87.6854 86.5 86.5803 86.5C85.4621 86.5 84.448 86.6933 83.4209 87.1314C82.4068 87.5696 81.5747 88.1881 80.8987 88.8583L80.8467 88.9098C80.5086 89.2964 80.2096 89.683 79.9756 90.1083C79.7806 90.4949 79.5855 90.8299 79.4945 91.1134C79.4035 90.9201 79.2475 90.5851 79.0525 90.25C78.7145 89.6186 78.4154 89.1418 78.1814 88.9485C77.5053 88.1753 76.7253 87.6469 75.7112 87.2217C74.6971 86.7835 73.6309 86.5902 72.4088 86.5902C71.6287 86.5902 70.5106 86.6804 69.3015 87.2603C67.8974 87.9304 66.7272 88.9871 65.9082 90.5335V87.0799H64.79V106.358H65.9082V95.3918C65.9082 94.1418 66.0512 93.0851 66.3502 92.1186C66.6362 91.1521 67.0783 90.4304 67.6633 89.7088C68.1444 89.0387 68.8725 88.5103 69.7045 88.1753C70.5236 87.7887 71.4077 87.5954 72.3178 87.6469C73.4359 87.6985 74.398 87.8918 75.2821 88.2784C76.1012 88.665 76.7903 89.2449 77.3623 89.915C77.8434 90.5851 78.1814 91.165 78.3764 91.8351C78.6625 92.6469 78.7665 93.6134 78.7665 94.9665V106.32H79.8846V95.4562C79.8846 94.116 79.9366 93.0077 80.1706 92.0928C80.4176 91.2294 80.7557 90.5593 81.4317 89.683C82.0168 88.9098 82.7449 88.3814 83.759 87.9948C84.5781 87.7113 85.5012 87.518 86.3722 87.518C87.3473 87.518 88.1664 87.6598 88.9465 87.9562C89.7266 88.2526 90.2986 88.6778 90.8447 89.2062C91.5208 89.8763 92.0148 90.701 92.3008 91.7577C92.6389 92.8144 92.7819 94.0129 92.7819 95.5078V106.32H93.9L94.095 95.4562C94.095 93.8712 93.9 92.4794 93.51 91.3196C93.1719 90.1598 92.6779 89.1418 91.9108 88.4201Z" fill="black"/>
<path d="M113.974 91.9767C113.389 90.6365 112.271 89.2834 110.814 88.3169C109.111 87.1571 107.083 86.5901 104.951 86.5901C101.076 86.5901 98.6972 88.3169 97.332 89.8117C95.6808 91.6416 94.7188 94.1417 94.7188 96.6932C94.7188 99.2448 95.6939 101.745 97.332 103.575C98.6452 105.018 101.063 106.796 104.951 106.796C106.94 106.796 108.734 106.32 110.333 105.405C111.841 104.438 113.051 103.188 113.974 101.513V106.371H115.092V87.1313H113.974V91.9767ZM113.35 93.0849C113.545 93.6133 113.74 94.1417 113.831 94.67C113.974 95.2499 114.026 95.8685 114.026 96.3968C114.078 97.0283 114.026 97.5953 113.935 98.1236C113.844 98.7551 113.688 99.2834 113.493 99.7602C112.856 101.539 111.75 103.072 110.242 104.09C108.786 105.147 106.94 105.675 105.055 105.675C102.247 105.675 99.9193 104.67 98.2161 102.84C96.76 101.204 95.8369 98.9484 95.8369 96.5901C95.8369 94.0386 96.812 91.7834 98.4501 90.0953C100.153 88.4586 102.429 87.505 104.951 87.505C106.797 87.505 108.591 88.0334 110.047 88.9483C111.555 90.0566 112.713 91.4483 113.35 93.0849Z" fill="black"/>
<path d="M119.369 90.0052C120.383 89.0902 121.41 88.5103 122.424 88.0851C123.438 87.6985 124.556 87.4536 125.922 87.4536H126.013C127.664 87.4536 129.354 87.9304 130.771 88.7552C132.422 89.8119 133.683 91.2552 134.359 93.0851L134.411 93.1753H135.673L135.582 92.982C134.801 90.8171 133.345 89.0387 131.408 87.8918C129.809 86.9253 127.872 86.4485 125.974 86.4485C123.165 86.4485 120.591 87.5052 118.693 89.3866C116.795 91.2681 115.729 93.8583 115.729 96.6418C115.729 99.232 116.743 101.732 118.394 103.562C120.292 105.624 122.957 106.732 126.156 106.732C128.236 106.732 130.277 106.101 131.928 104.954C133.579 103.807 134.84 102.209 135.569 100.289L135.66 100.095H134.398L134.346 100.186C133.865 101.577 132.838 102.93 131.486 103.884C129.939 105.083 127.95 105.662 125.909 105.662C124.699 105.662 123.529 105.418 122.411 104.992C121.293 104.516 120.37 103.884 119.499 103.111C118.628 102.247 117.991 101.281 117.51 100.134C117.029 99.0258 116.782 97.7758 116.782 96.5258C116.782 95.2758 117.068 93.9743 117.51 92.8274C117.913 91.7449 118.589 90.7784 119.369 90.0052ZM132.461 89.915C133.332 90.7268 134.06 91.7964 134.541 93.0464C134.06 91.8351 133.332 90.8299 132.461 89.915Z" fill="black"/>
<path d="M151.379 87.0283H150.118L150.066 87.1185C150.066 87.2087 148.168 91.5902 146.283 96.0103L142.551 104.709L139.015 96.0103C136.74 90.2371 135.426 87.1572 135.426 87.1185L135.374 87.0283H134.113L141.875 106.217L138.378 114H139.639L139.691 113.91C139.691 113.91 139.782 113.665 139.938 113.278C140.523 111.938 142.122 108.227 143.968 104.052C144.449 102.943 144.943 101.796 145.476 100.637L150.04 90.1984C150.82 88.4201 151.301 87.2603 151.301 87.2216L151.379 87.0283Z" fill="black"/>
<path d="M160.115 96.977C159.049 96.2038 157.736 95.8172 156.423 95.5337L156.28 95.4822C154.772 95.044 153.81 94.6188 153.173 94.1419C152.445 93.5105 152.055 92.7502 152.003 91.5904C152.003 91.062 152.055 90.5337 152.25 90.0955C152.393 89.6187 152.692 89.2321 153.03 88.8455C153.42 88.4074 153.901 88.1239 154.382 87.879C154.967 87.6342 155.552 87.544 156.176 87.544H156.267C156.852 87.544 157.385 87.6342 157.814 87.8275C158.295 88.0208 158.737 88.3043 159.075 88.6394C159.413 88.9744 159.712 89.4126 159.894 89.8894C160.089 90.3662 160.18 90.8945 160.18 91.4744V91.6162H161.298V91.5002C161.298 90.1084 160.765 88.8584 159.894 87.9435C158.971 87.0285 157.71 86.6033 156.163 86.6033C154.811 86.6033 153.498 87.0414 152.523 87.8017C151.404 88.7167 150.871 90.0182 150.871 91.6033C150.923 93.0981 151.456 94.1935 152.419 95.0182C153.433 95.8301 154.798 96.2682 156.15 96.6033C157.801 96.9899 158.958 97.5182 159.686 98.1883C160.466 98.9615 160.804 99.8765 160.856 101.165V101.307C160.856 101.938 160.765 102.557 160.518 103.034C160.271 103.562 159.985 104.039 159.543 104.425C159.153 104.864 158.62 105.199 158.087 105.431C157.502 105.675 156.878 105.766 156.241 105.766C154.837 105.766 153.576 105.328 152.705 104.516C151.834 103.652 151.391 102.492 151.352 101.101V100.959L150.234 101.011V101.255C150.234 101.307 150.234 101.346 150.234 101.397C150.234 102.067 150.377 102.699 150.624 103.317C150.871 103.949 151.209 104.516 151.691 104.954C152.276 105.534 152.952 106.011 153.732 106.294C154.512 106.578 155.331 106.771 156.254 106.771C157.073 106.771 157.853 106.578 158.581 106.294C159.309 105.959 159.933 105.521 160.479 104.992C160.96 104.464 161.403 103.833 161.65 103.163C161.936 102.492 162.04 101.771 161.988 100.998C161.91 99.142 161.272 97.8533 160.115 96.977Z" fill="black"/>
<path d="M150.742 85.5852L152.055 84.6702L153.368 85.5852L152.835 84.0517L154.187 83.0852H152.588L152.055 81.5903L151.574 83.0852H149.975L151.236 84.0517L150.742 85.5852Z" fill="black"/>
</svg>
