<svg width="194" height="194" viewBox="0 0 194 194" fill="none" xmlns="http://www.w3.org/2000/svg">
<path d="M55.1323 117.211V110.489H56.6065V117.211H55.1323V117.211ZM64.1431 117.211L60.8889 112.939V117.213H59.4338V110.489H60.7933L63.9328 114.628V110.489H65.3879V117.211H64.1431V117.211ZM70.6898 111.852V117.211H69.2157V111.852H67.1765V110.489H72.7291V111.852H70.6898ZM74.5134 117.211V110.489H79.5689V111.803H75.9706V113.141H79.1292V114.456H75.9706V115.894H79.6093V117.209L74.5134 117.211ZM86.1242 117.211L84.6797 115.061H83.522V117.213H82.0478V110.489H85.1046C86.685 110.489 87.6323 111.324 87.6323 112.707V112.726C87.6763 113.666 87.0884 114.519 86.1964 114.81L87.8341 117.211H86.1242V117.211ZM86.1539 112.783C86.1539 112.144 85.7142 111.823 84.9962 111.823H83.5305V113.753H85.0175C85.7354 113.753 86.1475 113.369 86.1475 112.803L86.1539 112.783ZM94.7739 117.211L91.5281 112.937V117.211H90.073V110.489H91.4325L94.572 114.628V110.489H96.0271V117.211H94.7739V117.211ZM103.377 117.211L102.765 115.702H99.925L99.3132 117.211H97.8093L100.681 110.44H102.041L104.913 117.211H103.377ZM101.342 112.219L100.452 114.398H102.232L101.342 112.219ZM108.776 111.855V117.213H107.302V111.852H105.263V110.489H110.816V111.852L108.776 111.855ZM112.757 117.213V110.489H114.231V117.211L112.757 117.213ZM120.094 117.328C118.029 117.332 116.542 115.781 116.542 113.87V113.851C116.542 111.933 118.046 110.374 120.113 110.374C122.18 110.374 123.665 111.921 123.665 113.832V113.851C123.667 115.762 122.165 117.332 120.096 117.332L120.094 117.328ZM122.123 113.851C122.161 112.723 121.281 111.777 120.157 111.739C120.136 111.738 120.115 111.737 120.094 111.737C118.907 111.737 118.083 112.679 118.083 113.832V113.851C118.044 114.979 118.924 115.924 120.048 115.963C120.069 115.964 120.09 115.964 120.111 115.964C121.299 115.964 122.123 115.023 122.123 113.87V113.851ZM130.775 117.211L127.529 112.937V117.211H126.08V110.489H127.44L130.579 114.628V110.489H132.034V117.211H130.775V117.211ZM139.377 117.211L138.766 115.702H135.938L135.327 117.211H133.823L136.695 110.44H138.054L140.926 117.211H139.377ZM137.359 112.219L136.469 114.398H138.25L137.359 112.219ZM142.591 117.213V110.489H144.066V115.866H147.407V117.211L142.591 117.213Z" fill="black"/>
<path d="M101.406 89.0218C100.623 88.6105 99.7569 88.3832 98.8735 88.3571C97.1105 88.3571 96.1121 89.6354 95.8508 90.0615V103.765H90.5042V84.5583H95.4026L95.7085 86.5696C95.9209 86.2201 97.1954 84.145 99.7232 84.145C100.296 84.1525 100.864 84.251 101.406 84.4369V89.0218H101.406ZM114.093 84.4369C113.551 84.251 112.984 84.1525 112.411 84.145C109.881 84.145 108.615 86.2201 108.396 86.5695L108.09 84.5583H103.192V103.767H108.539V90.0615C108.808 89.6247 109.796 88.357 111.561 88.357C112.445 88.3832 113.311 88.6105 114.093 89.0218L114.093 84.4369ZM87.2288 90.0721V103.767H82.3219L82.016 101.764C81.6783 102.093 80.1043 104.18 76.8606 104.18C73.8018 104.18 71.6904 101.837 71.6904 98.6816C71.6904 91.8852 79.6816 90.9286 81.8865 90.7049V90.1595C81.8865 89.0473 80.956 87.8926 78.4878 87.8926C75.8792 87.8926 73.8698 89.3392 73.5087 89.597V85.6364C75.5928 84.6343 77.8781 84.1241 80.1892 84.145C85.1046 84.1408 87.2288 86.3927 87.2288 90.0721ZM81.8822 94.4589C80.1829 94.4589 77.0794 95.0448 77.0794 97.7335C77.0794 99.097 78.0098 100.077 79.176 100.077C80.6926 100.077 81.8822 98.9863 81.8822 96.5298L81.8822 94.4589ZM52.5409 78.8634L57.3479 89.2093L55.4616 93.2573L47.4428 76L41.3337 78.857L46.1364 89.188C45.7605 89.9933 45.1572 91.3036 44.1801 93.3894C41.9837 98.1 40.2843 99.4188 37.2743 99.4188C36.4466 99.4038 35.627 99.2519 34.8485 98.9692L32 105.092C33.443 105.695 34.9871 106.017 36.55 106.04C40.1123 106.04 42.7293 103.718 45.0043 98.8222L47.8082 92.7928L52.9062 103.774H60.3409L57.1206 96.8493L59.0069 92.8013L64.1049 103.782H71.5396L58.65 76L52.5409 78.8634ZM159.287 84.5605V78.2051L153.941 80.7063V84.5605H152.229V87.9011H153.943V103.769H159.29V87.899H162V84.5583L159.287 84.5605ZM116.094 103.769H121.441V84.5583H116.094V103.769ZM147.934 78.203L142.587 80.7042V84.5583H140.873V87.899H142.587V103.767H147.934V87.899H150.646V84.5583H147.934V78.203ZM139.624 92.5819V95.7415C139.624 100.32 137.393 104.183 131.915 104.183C126.437 104.183 124.207 100.348 124.207 95.7415V92.584C124.207 87.9863 126.437 84.1429 131.915 84.1429C137.393 84.1429 139.624 88.0055 139.624 92.584V92.5819ZM134.235 91.8213C134.235 89.5246 133.678 87.8947 131.915 87.8947C130.152 87.8947 129.596 89.5246 129.596 91.8213V96.5084C129.596 98.8052 130.142 100.435 131.915 100.435C133.689 100.435 134.235 98.8052 134.235 96.5084V91.8213Z" fill="black"/>
</svg>
