<svg width="194" height="194" viewBox="0 0 194 194" fill="none" xmlns="http://www.w3.org/2000/svg">
<path d="M55.2916 110.683L55.3132 94.8121H55.2482L49.2249 103.891H45.8233L39.6266 94.9403H39.5616L39.54 110.683H32V83.448H38.4783L47.4049 95.8802H47.4699L55.9849 83.448H62.8749V110.683H55.2916Z" fill="black"/>
<path d="M82.4831 88.7675C78.2148 88.7675 75.7232 91.9717 75.7232 97.1197C75.7232 102.268 78.2798 105.408 82.4831 105.408C86.7515 105.408 89.1998 102.268 89.1998 97.1197C89.1998 91.9717 86.6865 88.7675 82.4831 88.7675ZM92.4931 107.95C90.0015 110.086 86.5781 111.261 82.4831 111.261C78.4965 111.261 75.2032 110.15 72.7115 108.121C69.6349 105.643 67.8799 101.841 67.8799 97.1411C67.8799 92.6552 69.5915 88.8529 72.6032 86.311C75.0948 84.2389 78.5182 83 82.6132 83C86.8165 83 90.3481 84.2817 92.8398 86.5246C95.6348 89.0666 97.1514 92.698 97.1514 97.1197C97.1514 101.67 95.5048 105.472 92.4931 107.95Z" fill="black"/>
<path d="M119.165 89.0446H109.654V94.1926H119.165V99.5329H109.654V105.087H120.53V110.683H102.157V83.448H121.029L119.165 89.0446Z" fill="black"/>
<path d="M147.634 110.683L134.612 93.915H134.569L134.547 110.683H127.051V83.448H134.439L147.006 99.7038H147.071V83.448H154.632V110.683H147.634Z" fill="black"/>
<path d="M159.335 88.6392C157.861 88.6392 156.691 87.4644 156.691 86.0118C156.691 84.5593 157.883 83.4058 159.356 83.4058C160.808 83.4058 162 84.5806 162 86.0118C162 87.443 160.83 88.6179 159.335 88.6392C159.356 88.6392 159.356 88.6392 159.335 88.6392ZM159.335 83.833C158.121 83.833 157.125 84.8156 157.125 86.0118C157.125 87.208 158.121 88.1907 159.335 88.1907C160.548 88.1907 161.545 87.208 161.545 86.0118C161.566 84.8156 160.57 83.833 159.335 83.833ZM158.186 84.6447H159.443C160.158 84.6447 160.396 85.0719 160.396 85.371C160.396 85.8196 160.05 86.1827 159.595 86.1827H159.573V86.2041C159.811 86.2895 160.006 86.5245 160.245 86.909L160.591 87.4644H160.028L159.79 87.0158C159.421 86.375 159.291 86.2682 158.945 86.2682H158.641V87.4644H158.186V84.6447ZM159.313 85.8837C159.66 85.8837 159.898 85.7555 159.898 85.4564C159.898 85.1574 159.681 85.0292 159.378 85.0292H158.641V85.8623H159.313V85.8837Z" fill="black"/>
</svg>
