<svg width="194" height="194" viewBox="0 0 194 194" fill="none" xmlns="http://www.w3.org/2000/svg">
<g clip-path="url(#clip0_837_9669)">
<path d="M163.916 84.4776C165.755 94.8236 137.064 108.372 99.8264 114.738C62.5939 121.104 30.92 117.874 29.0839 107.523C27.2478 97.1766 55.9472 83.6311 93.1796 77.2679C130.415 70.8965 162.083 74.1288 163.916 84.4776Z" fill="black"/>
<path d="M128.872 99.8336L128.682 89.0767H132.137V102.636H127.17L123.721 91.5091H123.645L123.838 102.636H120.403V89.0767H125.587L128.796 99.8336H128.872Z" fill="white"/>
<path d="M66.0597 90.3477L64.1483 102.778H60.3784L62.9651 89.0767H69.1738L71.7521 102.778H67.9962L66.1378 90.3477H66.0597Z" fill="white"/>
<path d="M82.3362 99.5514L84.0606 89.0767H89.7531L90.0544 102.778H86.5664L86.4743 90.46H86.4018L84.069 102.778H80.528L78.1924 90.46H78.1171L78.0306 102.778H74.5342L74.8439 89.0767H80.5391L82.2608 99.5514H82.3362Z" fill="white"/>
<path d="M54.5017 98.9131C54.6384 99.2446 54.5965 99.6719 54.5324 99.9294C54.4152 100.384 54.0998 100.85 53.1734 100.85C52.2972 100.85 51.7671 100.357 51.7671 99.6061V98.2804H48.0223L48.0195 99.3404C48.0195 102.395 50.4695 103.318 53.0953 103.318C55.6206 103.318 57.6995 102.471 58.0287 100.187C58.199 99.0035 58.0706 98.2283 58.0148 97.9352C57.426 95.0673 52.127 94.2099 51.7336 92.6074C51.6666 92.3335 51.6861 92.0404 51.7196 91.8843C51.8173 91.4488 52.1214 90.9667 52.9948 90.9667C53.8096 90.9667 54.2924 91.4624 54.2924 92.2103C54.2924 92.4623 54.2924 93.0567 54.2924 93.0567H57.772V92.0952C57.772 89.1095 55.043 88.6438 53.0674 88.6438C50.5839 88.6438 48.5553 89.4491 48.1842 91.6788C48.0837 92.2952 48.0698 92.843 48.2149 93.5306C48.826 96.3273 53.7817 97.1381 54.5017 98.9131Z" fill="white"/>
<path d="M99.8875 98.8885C100.024 99.2172 99.9796 99.6335 99.9182 99.891C99.8038 100.346 99.4913 100.803 98.5704 100.803C97.7082 100.803 97.1808 100.31 97.1808 99.576L97.178 98.2612H93.4724L93.4668 99.3076C93.4668 102.332 95.8944 103.244 98.4923 103.244C100.99 103.244 103.049 102.408 103.376 100.146C103.546 98.9707 103.426 98.2064 103.364 97.9188C102.778 95.0782 97.5352 94.2291 97.1446 92.6403C97.0776 92.3664 97.0971 92.0788 97.1306 91.9309C97.2311 91.4899 97.5296 91.0215 98.3946 91.0215C99.2039 91.0215 99.6754 91.5036 99.6754 92.2486C99.6754 92.4979 99.6754 93.0868 99.6754 93.0868H103.13V92.1336C103.13 89.1807 100.423 88.7178 98.4644 88.7178C96.0089 88.7178 93.997 89.5121 93.6342 91.7282C93.5338 92.3363 93.5226 92.8732 93.6677 93.558C94.2676 96.3273 99.176 97.1326 99.8875 98.8885Z" fill="white"/>
<path d="M111.61 100.729C112.579 100.729 112.88 100.072 112.947 99.7348C112.975 99.5869 112.983 99.3897 112.98 99.2116V89.071H116.51V98.8993C116.519 99.1514 116.494 99.6691 116.48 99.7978C116.231 102.356 114.172 103.186 111.607 103.186C109.04 103.186 106.978 102.356 106.733 99.7978C106.721 99.6691 106.696 99.1486 106.702 98.8993V89.071H110.229V99.2089C110.229 99.3869 110.235 99.5869 110.263 99.7321C110.341 100.069 110.634 100.729 111.61 100.729Z" fill="white"/>
<path d="M140.728 100.584C141.738 100.584 142.093 99.9568 142.157 99.5925C142.182 99.4363 142.191 99.2446 142.188 99.072V97.0834H140.756V95.0837H145.706V98.7625C145.704 99.02 145.698 99.209 145.656 99.6664C145.425 102.159 143.22 103.049 140.748 103.049C138.27 103.049 136.071 102.159 135.834 99.6664C135.795 99.209 135.789 99.02 135.784 98.7625L135.786 92.9937C135.786 92.7499 135.817 92.3199 135.845 92.0898C136.155 89.5286 138.27 88.7041 140.748 88.7041C143.223 88.7041 145.391 89.5231 145.648 92.0898C145.692 92.5253 145.679 92.9937 145.679 92.9937V93.4512H142.16V92.6842C142.163 92.6869 142.154 92.3582 142.115 92.1637C142.057 91.8597 141.789 91.1639 140.723 91.1639C139.704 91.1639 139.408 91.8213 139.333 92.1637C139.291 92.3445 139.275 92.5883 139.275 92.8102V99.0775C139.272 99.2501 139.283 99.4418 139.311 99.598C139.367 99.9568 139.718 100.584 140.728 100.584Z" fill="white"/>
</g>
<defs>
<clipPath id="clip0_837_9669">
<rect width="135" height="44" fill="white" transform="translate(29 74)"/>
</clipPath>
</defs>
</svg>
