<svg width="194" height="194" viewBox="0 0 194 194" fill="none" xmlns="http://www.w3.org/2000/svg">
<g clip-path="url(#clip0_837_9783)">
<path d="M122.352 56.4556L120.117 57.5366C120.117 57.5366 120.029 58.935 119.953 60.2604C119.288 69.5425 119.193 73.496 119.216 76.3684C119.247 83.7597 120.068 92.3078 120.068 92.3078L120.186 93.7596L122.352 92.7816C122.352 92.7816 122.382 57.93 122.352 56.4556V56.4556ZM117.305 58.8966L115.184 59.7941C115.184 59.7941 115.096 60.883 115.016 62.2046C114.256 71.5249 114.188 76.2805 114.173 78.2477C114.116 85.1577 115.085 94.6989 115.085 94.6989L115.233 96.0664L117.737 94.9205L117.867 92.7017C118.247 88.1409 118.247 88.16 118.395 77.4226C118.49 70.9595 117.471 61.0543 117.449 60.7334C117.403 60.0726 117.305 58.8966 117.305 58.8966ZM112.249 61.2758L110.101 62.2658C110.101 62.2658 110.018 63.3391 109.938 64.6569C109.178 73.981 109.109 78.7362 109.09 80.7187C109.037 87.621 110.006 97.1706 110.006 97.1706L110.147 98.4695L112.66 97.3235L112.785 95.1727C112.785 95.1727 113.165 90.62 113.317 79.8711C113.412 73.4081 112.39 63.5027 112.367 63.1857C112.322 62.5249 112.249 61.2758 112.249 61.2758V61.2758ZM107.258 63.6251L105.047 64.5689C105.035 65.3262 104.981 66.0824 104.887 66.8339C104.341 72.2457 104.072 77.6821 104.081 83.1217C103.997 89.9438 105.035 99.5468 105.035 99.5468L105.16 100.846L107.441 99.7378L107.616 97.6481C107.616 97.6481 108.178 92.6826 108.303 81.8497C108.364 76.269 107.448 66.479 107.41 65.4515C107.38 64.8288 107.258 63.6251 107.258 63.6251V63.6251ZM101.975 66.0737L100.333 66.7421L100.109 68.9959C99.1817 77.9113 99.0942 83.0913 99.0676 85.1539C98.9878 91.9761 100.208 101.67 100.208 101.67L100.337 103.107L102.408 102.117L102.53 99.9705C102.53 99.9705 103.024 94.9132 103.172 84.0841C103.256 78.3544 102.207 68.7399 102.093 67.4718C102.04 66.8453 101.975 66.0737 101.975 66.0737V66.0737ZM96.7759 68.4304L95.6847 68.9042C95.6847 68.9042 95.6884 69.1184 95.6884 70.0046C95.0878 74.6724 94.0201 80.2951 93.9022 87.1936C93.7692 94.7453 95.3424 103.875 95.3424 103.875L95.4946 105.314L96.7373 104.715L96.9393 102.442C97.8743 94.0387 98.079 93.1024 98.1664 86.1618C98.25 80.3672 97.2548 74.1413 96.8101 69.6913C96.7711 69.2722 96.7597 68.851 96.7759 68.4304H96.7759ZM91.785 70.7835L90.6826 71.2878C90.6826 71.2878 90.8309 77.3841 90.4888 79.9816C89.379 86.1582 88.9687 88.3126 89.1169 91.2462C89.2585 93.8696 89.5913 96.4791 90.1124 99.0536C90.3557 100.704 90.4354 101.727 90.4354 101.727L90.4814 107.682L91.5497 107.152C91.5497 107.152 91.5489 102.186 91.5794 101.911C91.6098 101.636 91.6099 101.35 91.6707 100.635C91.8569 98.4503 92.5487 94.0005 92.8109 90.3755C93.1226 85.7078 92.1193 81.2839 91.9179 79.099C91.8115 77.9263 91.7356 76.3566 91.785 70.7835H91.785ZM86.8364 73.1403L85.7911 73.5871C85.8253 80.669 85.8254 82.6972 85.8178 83.5872C84.7992 88.8967 84.6049 89.176 84.4415 91.7811C84.3161 93.8285 84.6545 95.2948 85.0042 97.0557C85.3121 98.5836 85.6805 100.23 85.6805 100.23L85.6464 109.952L86.7866 109.398L86.8171 99.7489C86.8171 99.7489 87.7713 94.5545 87.9158 91.5827C88.0868 88.0112 86.8364 84.1912 86.8364 83.3127V73.1403ZM81.9367 75.4515L80.9256 75.879V91.605C80.9256 91.987 80.1957 92.9843 80.0133 93.5992C79.8308 94.2142 79.5608 95.051 80.6517 95.8187C81.0014 96.067 80.8952 96.8614 80.9256 97.3847C80.9561 97.908 80.9256 112.121 80.9256 112.121L81.9635 111.678V95.9098C81.9635 95.4361 83.4835 94.0844 82.959 92.6406C82.7841 92.1631 82.1344 91.5939 82.1268 91.4946C82.0394 90.7536 81.9367 75.4515 81.9367 75.4515V75.4515ZM77.1663 77.6628L76.2242 78.0679V114.284L77.1745 113.886L77.1663 77.6628ZM72.7611 79.7257L71.8034 80.127L71.8109 116.346L72.7648 115.938L72.7611 79.7257ZM89.6262 120.066C86.8211 120.066 83.446 121.445 83.5069 124.619C83.5677 127.794 86.8591 129.028 89.6262 129.028C92.3933 129.028 95.4109 127.794 95.4679 124.619C95.5249 121.445 92.4845 120.066 89.6262 120.066ZM76.1455 120.129C75.1074 120.129 74.0014 120.289 73.035 120.727C70.9559 121.667 71.5414 123.515 71.9215 123.985C72.3738 124.596 73.1682 124.894 74.202 125.131C75.654 125.463 77.6074 125.582 78.8351 125.747C79.9792 125.896 79.8878 127.015 79.2531 127.366C78.185 127.951 75.5058 127.916 74.0424 127.098C72.7653 126.392 72.9021 125.719 72.9021 125.54H71.7619V128.596H73.0276V128.332C72.9972 127.893 73.6089 128.229 73.989 128.363C76.0795 129.089 79.0251 129.219 80.7089 128.111C82.5827 126.877 81.975 124.563 79.8351 123.867C78.2121 123.336 75.5894 123.424 74.2629 123.015C73.2328 122.698 73.5406 121.193 76.5813 121.311C79.5612 121.426 80.2872 122.809 80.2872 123.309H81.3132V120.521H80.2115C80.3255 121.048 80.0287 121.113 79.8121 120.903C79.4177 120.571 77.8758 120.129 76.1455 120.129V120.129ZM96.669 120.494V121.568H97.6801C98.2389 121.587 98.2391 121.858 98.2391 122.179V127.087C98.2239 127.328 98.163 127.554 97.7373 127.584H96.6883V128.577H101.42V127.542H100.344C100.105 127.553 99.8315 127.584 99.8315 127.049L99.8352 123.008L106.141 128.577H107.638V122.041C107.638 121.8 107.76 121.537 108.018 121.537H109.117V120.494H104.537V121.525H105.548C105.783 121.556 106.065 121.556 106.065 122.133V125.521L100.664 120.494H96.669ZM110.159 120.502V121.56H111.048C111.404 121.545 111.746 121.705 111.964 121.988C111.994 122.034 115.15 125.518 115.15 125.518V127.347C115.15 127.469 115.127 127.538 114.902 127.538H113.595V128.573H118.988V127.538H117.81C117.582 127.538 117.582 127.542 117.582 127.347V125.532C117.582 125.532 120.428 122.148 120.656 121.915C120.809 121.714 121.037 121.586 121.287 121.56H122.329V120.502H117.871V121.56H118.547C118.772 121.56 118.806 121.873 118.7 122.019L116.844 124.215C116.844 124.215 115.222 122.259 114.994 122.033C114.766 121.808 114.933 121.56 115.055 121.56H115.613V120.502H110.159ZM89.5727 121.27C91.5036 121.27 92.9668 122.462 92.9668 124.563C92.9592 126.648 91.4428 127.798 89.5727 127.851C87.7027 127.905 86.1861 126.663 86.1823 124.563C86.1785 122.462 87.6419 121.27 89.5727 121.27ZM85.0346 131.247C83.5675 131.22 81.7809 132.022 81.8113 134.058C81.8417 136.094 83.7078 136.732 85.2054 136.732C86.7904 136.732 87.6647 135.712 87.7673 134.948L87.1935 134.963C86.9806 135.907 85.9277 136.109 85.2626 136.109C84.1387 136.097 83.2348 135.177 83.2366 134.047C83.2366 132.943 83.8181 132.049 84.9812 131.907C86.0835 131.766 87.1173 132.336 87.1667 133.229H87.6953V131.526H87.1214C87.1823 131.9 87.019 131.893 86.8935 131.763C86.3367 131.414 85.6909 131.234 85.0346 131.247V131.247ZM119.073 131.369C119.027 131.369 118.982 131.37 118.936 131.372C118.409 131.392 117.892 131.519 117.414 131.743C116.651 132.074 116.371 133.018 116.83 133.714C117.13 134.089 117.56 134.336 118.034 134.406C118.837 134.575 119.647 134.702 120.463 134.788C121.208 134.903 121.063 135.568 120.683 135.797C119.885 136.301 118.931 136.232 117.95 135.601C117.293 135.177 117.357 134.769 117.357 134.662H116.765V136.514H117.43V136.354C117.415 136.071 117.734 136.278 117.936 136.354C119.03 136.797 120.573 136.877 121.455 136.205C122.44 135.456 122.139 134.062 120.999 133.638C120.143 133.321 118.753 133.432 118.076 133.123C117.472 132.848 117.711 131.973 119.285 132.015C120.858 132.057 121.238 133 121.238 133.302H121.774V131.576H121.197C121.254 131.931 121.132 131.93 120.964 131.846C120.384 131.53 119.733 131.366 119.073 131.369V131.369ZM78.4246 131.503V132.148H78.9836C79.2003 132.148 79.2568 132.271 79.2568 132.458V135.559C79.2568 135.75 79.2003 135.835 78.9836 135.835H78.4246V136.48H81.325V135.838H80.7586C80.5382 135.838 80.4921 135.75 80.4921 135.559L80.5114 132.458C80.5114 132.271 80.5567 132.145 80.7772 132.145H81.3436V131.503H78.4246ZM95.1487 131.507V132.152H95.7114C95.928 132.152 95.9809 132.275 95.9809 132.462V134.899C95.9809 136.43 97.2241 136.705 98.4062 136.705C99.6111 136.705 100.763 136.419 100.748 134.975V132.683C100.744 132.305 100.865 132.163 101.006 132.163H101.569V131.522H99.0943V132.168H99.6526C99.8731 132.168 99.9265 132.29 99.9265 132.477V134.987C99.9265 135.525 99.7935 136.132 98.4062 136.132C97.1671 136.132 97.2317 135.155 97.2317 134.987V132.462C97.2317 132.271 97.2852 132.149 97.5057 132.149H98.0676V131.507H95.1487ZM88.5735 131.518V133.405L89.1778 133.413C89.1778 132.118 89.2423 132.202 89.7517 132.156H90.8919V135.594C90.8919 135.785 90.8346 135.907 90.618 135.907H90.0553V136.514H92.9787V135.9H92.416C92.1994 135.9 92.1495 135.777 92.1495 135.586V132.149H93.2898C93.7459 132.202 93.8644 132.072 93.8644 133.405H94.4531V131.518L88.5735 131.518ZM71.6705 131.522V132.179H72.2028C72.4195 132.179 72.476 132.279 72.476 132.462V135.563C72.476 135.75 72.427 135.839 72.2065 135.839H71.6438V136.484H74.5784V135.839H74.0046C73.7879 135.839 73.7343 135.754 73.7343 135.567V134.345H75.5019C77.1059 134.345 77.752 133.928 77.752 132.893C77.752 131.858 77.2883 131.522 75.8516 131.522H71.6705ZM102.252 131.534V132.149H102.785C103.001 132.149 103.055 132.286 103.055 132.473V135.571C103.055 135.762 103.009 135.85 102.792 135.85H102.226V136.515H105.149V135.862H104.586C104.37 135.862 104.317 135.777 104.317 135.59V134.368H105.757C106.32 134.368 106.62 134.517 106.62 134.899V135.445C106.62 136.434 107.247 136.641 107.901 136.641C108.676 136.641 108.889 136.385 108.889 135.495V135.113H108.364V135.419C108.376 135.69 108.392 135.976 108.148 135.976C107.905 135.976 107.882 135.766 107.882 135.628V134.911C107.855 134.307 107.51 134.204 107.015 134.082C107.586 133.975 108.247 133.722 108.251 132.928C108.251 131.992 107.783 131.534 106.35 131.534H102.252ZM109.535 131.534V132.179H110.098C110.314 132.179 110.368 132.305 110.368 132.493V135.59C110.368 135.777 110.314 135.869 110.098 135.869H109.535V136.515H115.423V134.597H114.853C114.853 135.564 114.765 135.804 114.256 135.854H111.629V134.288H112.85C113.013 134.288 113.115 134.349 113.115 134.605V135.14H113.66V132.806H113.115V133.318C113.115 133.581 113.013 133.638 112.85 133.638H111.629V132.141H114.256C114.765 132.191 114.853 132.458 114.853 133.417H115.423V131.534H109.535ZM73.7343 132.152H75.4143C75.973 132.152 76.3534 132.328 76.3534 132.916C76.3534 133.505 75.9728 133.68 75.3304 133.68H73.7343V132.152ZM106.053 132.167C106.065 132.167 106.077 132.167 106.089 132.167C106.506 132.182 106.84 132.517 106.856 132.936C106.856 133.413 106.525 133.7 105.913 133.7H104.317V132.172H105.974C106 132.169 106.027 132.167 106.053 132.167V132.167Z" fill="black"/>
</g>
<defs>
<clipPath id="clip0_837_9783">
<rect width="52" height="81" fill="white" transform="translate(71 56)"/>
</clipPath>
</defs>
</svg>
