<svg width="194" height="194" viewBox="0 0 194 194" fill="none" xmlns="http://www.w3.org/2000/svg">
<path d="M97.166 108.303C86.2162 108.303 77.33 99.4783 77.33 88.5846C77.33 77.6711 86.2162 68.8524 97.166 68.8524C108.125 68.8524 117.001 77.6711 117.001 88.5846C117.001 99.4783 108.125 108.303 97.166 108.303ZM97.166 59C80.7508 59 67.4395 72.2443 67.4395 88.5846C67.4395 104.912 80.7508 118.152 97.166 118.152C113.588 118.152 126.921 104.912 126.921 88.5846C126.921 72.2443 113.588 59 97.166 59Z" fill="black"/>
<path d="M97.1653 78.4468C91.5386 78.4468 86.9795 82.9707 86.9795 88.5846C86.9795 94.18 91.5384 98.7174 97.1653 98.7174C102.797 98.7174 107.366 94.1799 107.366 88.5846C107.366 82.9709 102.797 78.4468 97.1653 78.4468Z" fill="black"/>
<path d="M70.2787 125.869H67V123.856H75.9632V125.869H72.6845V134.739H70.2787V125.869Z" fill="black"/>
<path d="M74.9209 134.739H77.3561L78.2148 132.315H82.306L83.1337 134.739H85.6308L81.5396 123.856H79.0733L74.9209 134.739ZM80.2682 126.538H80.2983L81.6767 130.532H78.8441L80.2682 126.538Z" fill="black"/>
<path d="M86.5801 134.739H88.987V130.486H91.3911C92.6027 130.486 93.0462 130.989 93.2143 132.132C93.3384 133.001 93.3072 134.053 93.5986 134.739H96.0029C95.5743 134.129 95.5902 132.847 95.5436 132.162C95.4666 131.063 95.1309 129.921 93.9501 129.617V129.586C95.1621 129.099 95.6825 128.14 95.6825 126.858C95.6825 125.213 94.4404 123.856 92.4798 123.856H86.5802L86.5801 134.739ZM88.987 125.715H91.6229C92.6937 125.715 93.2764 126.173 93.2764 127.223C93.2764 128.32 92.6937 128.778 91.6229 128.778H88.987V125.715Z" fill="black"/>
<path d="M105.243 133.503C104.399 134.587 103.298 135 102.24 135C98.8548 135 96.8623 132.481 96.8623 129.341C96.8623 126.112 98.8546 123.598 102.24 123.598C104.477 123.598 106.592 124.969 106.853 127.437H104.554C104.277 126.231 103.373 125.609 102.24 125.609C100.08 125.609 99.2664 127.437 99.2664 129.341C99.2664 131.156 100.08 132.984 102.24 132.984C103.804 132.984 104.706 132.146 104.844 130.636H102.425V128.855H107.02V134.739H105.487L105.243 133.503Z" fill="black"/>
<path d="M108.659 123.856H116.838V125.869H111.065V128.199H116.365V130.061H111.065V132.726H116.963V134.739H108.659V123.856Z" fill="black"/>
<path d="M121.314 125.869H118.035V123.856H127V125.869H123.719V134.739H121.314V125.869Z" fill="black"/>
</svg>
