<svg width="194" height="194" viewBox="0 0 194 194" fill="none" xmlns="http://www.w3.org/2000/svg">
<path fill-rule="evenodd" clip-rule="evenodd" d="M86.4614 86.7491C84.5699 86.9977 82.2295 88.1471 80.9663 89.4474C76.8923 93.6409 77.2601 100.14 81.775 103.75C82.2146 104.101 82.7039 104.429 82.8628 104.479C83.0213 104.529 83.2931 104.68 83.4669 104.816C83.6407 104.952 83.8671 105.063 83.9707 105.063C84.074 105.063 84.4385 105.197 84.7804 105.36C85.7173 105.809 89.6284 105.808 90.4318 105.358C90.7221 105.196 91.0264 105.063 91.1085 105.063C91.7212 105.063 93.8484 103.574 94.8203 102.465C97.1746 99.7796 97.7894 95.1488 96.1895 92.1522C95.9561 91.7153 95.6757 91.1886 95.5668 90.9817C95.2507 90.3832 93.8266 88.932 93.0927 88.4599C91.8172 87.6399 91.6732 87.5668 90.7006 87.2493C89.1295 86.7366 87.7733 86.5767 86.4614 86.7491ZM84.3627 90.4448C84.6447 90.5203 84.8745 90.9297 86.0288 93.4102C86.283 93.9564 86.6445 94.731 86.8325 95.1315C87.0202 95.5321 87.2354 96.0237 87.3109 96.2239C87.3863 96.4242 87.5085 96.5881 87.5823 96.5881C87.722 96.5881 88.6929 94.7936 89.0511 93.8736C89.6704 92.2817 90.6285 90.5289 90.9221 90.4504C91.3216 90.3432 93.2631 90.3412 93.7938 90.4474C94.3201 90.5527 94.3162 90.6024 93.6667 91.9536C93.3694 92.5727 92.9781 93.4069 92.7974 93.8074C92.6166 94.208 92.4127 94.6251 92.3442 94.7343C92.2757 94.8435 92.1532 95.0819 92.0718 95.264C91.7093 96.0773 91.267 97.0284 90.5947 98.4419C89.8813 99.9414 89.1454 101.51 88.6072 102.679C88.2563 103.442 87.717 104.268 87.5707 104.268C87.5081 104.268 87.1523 103.627 86.7799 102.845C86.4078 102.062 85.8348 100.855 85.5071 100.163C85.179 99.4714 84.6831 98.4286 84.4044 97.846C84.126 97.2634 83.8271 96.593 83.7403 96.3564C83.6536 96.1197 83.5301 95.926 83.4659 95.926C83.402 95.926 83.3497 95.8482 83.3497 95.7536C83.3497 95.6585 83.208 95.2861 83.0349 94.926C82.8621 94.5655 82.3894 93.5856 81.9849 92.7481C81.0841 90.8827 80.9858 90.5441 81.3192 90.458C81.676 90.366 84.0307 90.3557 84.3627 90.4448ZM109.837 90.7086C108.921 90.996 108.965 90.6146 109.038 97.5597L109.104 103.894L109.475 104.213C109.89 104.57 110.789 104.647 111.526 104.391C112.094 104.192 112.251 103.532 111.813 103.177C111.35 102.803 111.305 102.184 111.297 96.0915L111.289 90.4971L110.859 90.5103C110.622 90.5173 110.162 90.6067 109.837 90.7086ZM135.955 90.852C135.04 91.0377 134.704 92.3492 135.395 93.0401C136.115 93.7601 137.753 93.1679 137.768 92.1824C137.772 91.8874 137.125 90.895 136.926 90.8927C136.845 90.8917 136.659 90.8685 136.514 90.8417C136.368 90.8145 136.117 90.8192 135.955 90.852ZM32 91.0532V93.1453H36.0737V98.9396V104.334H37.2619H38.4654V98.7729V93.1453H42.8314V91.0314H42.5752L32 91.0532ZM141.559 92.2797C140.758 92.672 140.678 92.7968 140.775 93.5045C140.865 94.159 140.711 94.4135 140.15 94.5367C139.437 94.6936 139.405 96.1313 140.109 96.4408C140.762 96.7288 140.817 97.0032 140.817 100.011C140.817 103.911 141.17 104.433 143.857 104.511C145.972 104.572 146.114 104.505 146.111 103.444C146.109 102.423 145.996 102.194 145.598 102.407C145.051 102.7 143.727 102.528 143.427 102.127C143.094 101.679 142.918 97.7762 143.193 96.942L143.353 96.4557H144.398C145.566 96.4557 145.716 96.3464 145.716 95.4967C145.716 94.7058 145.474 94.5327 144.434 94.581C143.226 94.6366 143.026 94.441 143.074 93.2519C143.126 91.9596 143.124 91.953 142.638 91.9579C142.401 91.9599 141.915 92.1049 141.559 92.2797ZM45.6448 94.4768C42.1256 94.9637 40.3337 99.4071 42.3398 102.672C42.6328 103.149 42.7463 103.235 43.1351 103.568C43.282 103.694 43.8693 104.155 44.1629 104.302C44.4566 104.449 44.8971 104.76 46.6051 104.76C48.3132 104.76 48.7237 104.467 48.7237 104.467L49.3385 104.04L49.9532 103.613L49.0084 101.953C49.0084 101.953 49.0237 101.903 48.3275 102.36C47.2003 103.098 44.85 102.423 44.275 101.195C43.8735 100.337 43.7569 100.37 47.4701 100.296C51.3167 100.218 51.1082 100.3 51.1045 98.8656C51.0999 97.1118 50.4613 95.674 48.8555 94.9253C48.6527 94.8308 48.3199 94.7217 48.3199 94.7217C48.3199 94.7217 47.7452 94.5426 46.6713 94.4188C46.4893 94.3976 46.0275 94.4238 45.6448 94.4768ZM55.0643 94.4658C54.01 94.5863 53.3655 95.0114 53.4893 95.5046C53.6786 96.2584 53.9527 96.7493 54.1437 96.6761C55.7526 96.0588 57.5961 96.3653 57.9251 97.3048C58.1079 97.8268 58.0933 97.8334 56.5553 97.9288C55.5506 97.991 55.0713 98.084 54.681 98.2932C54.3927 98.4478 54.0961 98.5746 54.0223 98.5749C53.9484 98.5753 53.6704 98.7752 53.4045 99.0195C51.9113 100.391 52.0357 103.046 53.6442 104.136C54.3516 104.615 56.9598 104.636 57.6159 104.169C58.1314 103.801 58.4753 103.791 58.7865 104.135C59.2185 104.612 60.3463 104.721 60.9564 104.344C61.1487 104.225 61.1454 103.797 60.9491 103.432C60.635 102.847 60.4516 101.509 60.4463 99.766C60.439 97.3892 60.298 96.5884 59.7524 95.8307C59.3069 95.2116 59.2565 95.1716 58.4561 94.8018C58.0565 94.6171 56.3987 94.3179 56.0065 94.3592C55.9336 94.3669 55.5096 94.4149 55.0643 94.4658ZM66.8643 94.4682C66.573 94.5145 66.0907 94.6794 65.7924 94.8346L65.2499 95.116L64.6113 94.7929C63.067 94.011 63.0803 93.9673 63.122 99.6117L63.1568 104.334L63.9456 104.375C64.3796 104.397 64.8712 104.381 65.038 104.339L65.3416 104.263V100.807V97.3521L65.8308 96.9039C66.6673 96.1379 68.1252 96.357 68.4668 97.2998C68.5228 97.4547 68.6022 99.1006 68.6433 100.958L68.7181 104.334H69.7774H70.8367L70.9029 100.892C70.9764 97.0651 70.9665 97.1144 71.7818 96.6364C72.4495 96.2455 73.0225 96.2763 73.6048 96.7344C74.2506 97.2422 74.2755 97.3849 74.3456 100.958L74.4119 104.334L75.5043 104.373C76.3249 104.401 76.5986 104.369 76.6046 104.24C76.7036 102.081 76.548 96.8661 76.3709 96.4067C75.685 94.6261 73.5409 93.9193 71.4428 94.782C70.41 95.2067 70.3441 95.208 69.5126 94.821C68.786 94.4827 67.6876 94.3364 66.8643 94.4682ZM102.05 94.4721C98.9811 94.918 96.8953 98.7633 98.183 101.601C98.327 101.919 98.4448 102.248 98.4448 102.334C98.4448 102.552 99.7282 103.764 100.365 104.148C101.614 104.9 106.26 104.442 106.257 103.567C106.252 102.489 105.518 101.837 104.785 102.259C103.407 103.051 101.314 102.529 100.612 101.217C100.12 100.298 100.127 100.296 103.791 100.294C105.581 100.292 107.073 100.236 107.184 100.166C107.549 99.9345 107.46 97.4455 107.064 96.7867C105.984 94.9905 104.189 94.1616 102.05 94.4721ZM117.38 94.4701C111.923 95.2236 112.06 104.248 117.532 104.509C120.413 104.647 122.663 103.129 122.68 101.038C122.681 100.812 122.738 100.388 122.806 100.097C123.222 98.3181 121.643 94.8667 120.414 94.8667C120.283 94.8667 120.141 94.8104 120.099 94.7419C120.031 94.6317 119.745 94.5747 118.439 94.4109C118.257 94.388 117.78 94.4145 117.38 94.4701ZM128.436 94.4814C126.306 94.7598 124.637 96.1064 124.26 97.8503C124.19 98.1757 124.071 98.7249 123.996 99.0708C123.836 99.8084 124.257 101.848 124.683 102.399C124.817 102.573 124.927 102.785 124.927 102.871C124.927 103.032 125.354 103.383 126.384 104.069L126.98 104.467H129.032H131.085L131.764 104.024C132.423 103.595 132.438 103.572 132.268 103.23C132.172 103.036 132.032 102.714 131.957 102.514C131.794 102.082 131.216 102.014 130.681 102.364C129.795 102.945 127.806 102.567 127.074 101.678C125.007 99.1705 127.77 95.2103 130.565 96.6742C131.348 97.0846 132.21 96.4345 132.21 95.4331C132.21 94.8104 130.062 94.2689 128.436 94.4814ZM135.502 94.5728C133.783 94.6145 133.805 94.6002 133.801 95.6678C133.799 96.2041 133.99 96.4557 134.401 96.4557C135.081 96.4557 135.116 96.6473 135.154 100.635L135.189 104.334H136.249H137.308L137.343 99.628C137.384 94.0103 137.571 94.5231 135.502 94.5728ZM147.917 94.5761L147.138 94.6161L147.216 95.2802C147.259 95.6453 147.416 96.1409 147.565 96.3812C147.713 96.6215 147.835 96.886 147.835 96.9694C147.835 97.0525 147.949 97.3733 148.089 97.6818C148.229 97.9907 148.384 98.3922 148.433 98.5743C148.516 98.8788 148.775 99.4793 149.436 100.906C149.575 101.205 149.689 101.535 149.689 101.638C149.689 101.741 149.769 101.943 149.868 102.087C150.267 102.669 150.763 104.797 150.584 105.161C150.331 105.677 149.786 106.014 149.004 106.137C148.195 106.265 147.967 106.494 147.967 107.181C147.967 109.165 152.014 107.841 152.62 105.658C152.701 105.367 152.843 104.95 152.935 104.731C153.027 104.513 153.147 104.185 153.201 104.003C153.256 103.821 153.412 103.465 153.547 103.211C153.683 102.957 153.793 102.675 153.793 102.584C153.793 102.402 154.347 100.932 154.736 100.082C154.873 99.7832 154.985 99.4631 154.985 99.3707C154.985 99.2787 155.125 98.8682 155.296 98.4584C155.468 98.0489 155.68 97.505 155.769 97.2501C155.858 96.9953 156.084 96.361 156.272 95.8406C156.728 94.5751 156.698 94.5261 155.489 94.5784L154.502 94.6211L154.148 95.1676C153.953 95.4682 153.793 95.8204 153.793 95.9499C153.793 96.173 153.315 97.509 152.925 98.3757C152.827 98.5941 152.681 99.041 152.6 99.3688C152.358 100.354 152.343 100.383 152.016 100.532C151.729 100.662 151.685 100.637 151.54 100.254C151.158 99.2416 150.702 98.0804 150.544 97.7136C149.906 96.2326 149.689 95.6698 149.689 95.497C149.689 94.8373 149.071 94.5162 147.917 94.5761ZM158.395 94.8237C158.635 94.9915 158.693 95.157 158.693 95.685C158.693 96.0872 158.744 96.3074 158.825 96.2571C158.898 96.212 158.958 95.8923 158.958 95.5467C158.958 94.9839 158.996 94.9028 159.322 94.774C159.647 94.6453 159.602 94.6294 158.891 94.6231C158.132 94.6161 158.11 94.6251 158.395 94.8237ZM161.378 95.109C161.153 95.5023 161.148 95.5036 160.816 95.2699C160.05 94.731 159.865 94.7737 159.91 95.4795C159.954 96.1726 160.047 96.2319 161.368 96.4146C161.929 96.4921 162.057 96.2643 161.979 95.3278C161.926 94.688 161.673 94.5959 161.378 95.109ZM47.8445 96.7589C48.2196 97.0068 48.4189 97.2677 48.5678 97.705C48.8287 98.4703 48.8476 98.4647 46.2741 98.4137L44.3541 98.3757L44.375 97.9337C44.4372 96.6103 46.5426 95.8972 47.8445 96.7589ZM103.684 96.4987C104.547 96.8287 105.34 97.9903 104.962 98.369C104.864 98.4667 100.761 98.4627 100.663 98.3651C100.621 98.323 100.675 98.0307 100.782 97.7152C101.156 96.6166 102.509 96.0495 103.684 96.4987ZM119.086 96.5139C121.06 97.5345 120.74 102.166 118.665 102.621C117.494 102.879 116.536 102.298 116.075 101.052C115.068 98.3326 116.993 95.4315 119.086 96.5139ZM57.9192 99.8911C58.1658 100.047 58.1896 101.325 57.9543 101.766C57.1356 103.298 54.2666 102.765 54.6704 101.156C54.9293 100.126 57.0098 99.3158 57.9192 99.8911Z" fill="black"/>
</svg>
