<svg width="194" height="194" viewBox="0 0 194 194" fill="none" xmlns="http://www.w3.org/2000/svg">
<path fill-rule="evenodd" clip-rule="evenodd" d="M72.6603 108.27C72.6603 108.52 72.5573 108.682 72.3653 108.786C71.9812 109.007 71.2129 109.098 70.6819 109.098C69.3212 109.098 67.9767 108.653 66.8106 107.515C66.2934 107.015 65.2439 105.505 65.2439 103.424C65.2439 101.693 65.849 100.352 66.7064 99.6716C67.8299 98.7841 68.937 98.6962 69.8697 98.6962C71.774 98.6962 72.9716 99.3302 73.3419 99.8925C73.5641 100.247 73.6369 100.661 73.652 100.868C73.667 101 73.6821 101.089 73.7562 101.089C73.8591 101.089 73.8867 101.016 73.8867 100.78C73.8867 99.2988 73.9909 98.8883 73.9909 98.6812C73.9909 98.6209 73.9633 98.5632 73.8126 98.5494C73.4436 98.5343 72.9251 98.4753 72.6151 98.4025C72.3364 98.3435 71.287 98.1489 70.3555 98.1489C69.2195 98.1489 67.7558 98.2531 66.4264 99.0804C65.1109 99.9076 63.9585 101.576 63.9585 103.942C63.9585 105.789 64.8159 107.367 65.7159 108.152C67.3579 109.585 69.4555 109.732 70.5765 109.732C71.4351 109.732 72.762 109.57 73.7085 109.066C73.8855 108.963 73.9005 108.936 73.9005 108.27V106.615C73.9005 105.995 73.9005 105.551 73.9294 105.079C73.9595 104.561 74.0763 104.31 74.4767 104.235C74.6537 104.207 74.7428 104.191 74.8458 104.191C74.906 104.191 74.9638 104.163 74.9638 104.102C74.9638 104.016 74.891 103.986 74.7278 103.986C74.2834 103.986 73.3532 104.029 73.2804 104.029C73.2076 104.029 72.2761 103.986 71.6096 103.986C71.4476 103.986 71.3736 104.015 71.3736 104.102C71.3736 104.163 71.4338 104.191 71.4928 104.191C71.6246 104.191 71.877 104.207 71.9937 104.235C72.5862 104.398 72.6578 104.561 72.6578 105.76V108.27H72.6603V108.27Z" fill="black"/>
<path fill-rule="evenodd" clip-rule="evenodd" d="M76.7799 108.127C76.5502 108.76 76.2966 109.24 75.7129 109.316C75.6125 109.331 75.4368 109.341 75.3464 109.341C75.2824 109.341 75.2334 109.368 75.2334 109.419C75.2334 109.494 75.3087 109.519 75.4744 109.519C76.0682 109.519 76.7649 109.483 76.9042 109.483C77.0435 109.483 77.5871 109.519 77.8921 109.519C78.0051 109.519 78.0817 109.493 78.0817 109.419C78.0817 109.37 78.044 109.341 77.9536 109.341H77.8281C77.6122 109.341 77.3448 109.225 77.3448 108.975C77.3448 108.747 77.4088 108.444 77.5243 108.127L78.2825 105.886C78.3089 105.821 78.3478 105.782 78.4106 105.782H81.1333C81.1961 105.782 81.2225 105.808 81.2488 105.861L82.4263 108.975C82.5016 109.176 82.4263 109.289 82.3472 109.316C82.297 109.331 82.2593 109.353 82.2593 109.405C82.2593 109.481 82.3987 109.481 82.6397 109.491C83.5121 109.518 84.4373 109.518 84.6281 109.518C84.7662 109.518 84.8817 109.491 84.8817 109.417C84.8817 109.353 84.8315 109.339 84.7536 109.339C84.6268 109.339 84.436 109.329 84.2477 109.264C83.9816 109.186 83.6151 108.985 83.1594 107.858C82.3874 105.934 80.4002 100.704 80.2069 100.223C80.0563 99.8306 80.0048 99.769 79.9295 99.769C79.8517 99.769 79.8015 99.8456 79.6508 100.261L76.7799 108.127V108.127ZM78.5499 105.328C78.5148 105.328 78.4871 105.301 78.5148 105.238L79.6282 101.82C79.691 101.629 79.7538 101.629 79.8178 101.82L81.0204 105.238C81.0329 105.29 81.0329 105.328 80.9714 105.328H78.5499Z" fill="black"/>
<path fill-rule="evenodd" clip-rule="evenodd" d="M88.275 100.491L89.8705 100.517C91.0856 100.541 91.3781 100.834 91.4283 101.211L91.4396 101.352C91.4522 101.529 91.4785 101.567 91.5426 101.567C91.5928 101.567 91.6292 101.514 91.6292 101.402C91.6292 101.263 91.6668 100.389 91.6668 100.009C91.6668 99.9334 91.6668 99.8581 91.6041 99.8581C91.5514 99.8581 91.4384 99.8832 91.2488 99.9209C91.0467 99.9473 90.7555 99.9837 90.3488 99.9837H85.6012C85.4506 99.9837 84.9685 99.9586 84.6007 99.9209C84.2605 99.8945 84.1325 99.7703 84.0459 99.7703C83.9957 99.7703 83.9455 99.9347 83.9166 100.009C83.8927 100.109 83.6392 101.2 83.6392 101.327C83.6392 101.403 83.6643 101.441 83.7019 101.441C83.7521 101.441 83.7923 101.416 83.83 101.313C83.8664 101.226 83.904 101.135 84.0459 100.921C84.248 100.616 84.5493 100.528 85.3351 100.517L87.2105 100.491V105.848C87.2105 107.062 87.2105 108.063 87.1465 108.595C87.0963 108.962 87.0335 109.242 86.7787 109.29C86.6644 109.317 86.5138 109.342 86.3996 109.342C86.3217 109.342 86.2979 109.381 86.2979 109.42C86.2979 109.495 86.3619 109.52 86.5 109.52C86.8816 109.52 87.6775 109.484 87.739 109.484C87.8043 109.484 88.6026 109.52 89.2956 109.52C89.4374 109.52 89.5014 109.484 89.5014 109.42C89.5014 109.382 89.4751 109.342 89.3972 109.342C89.2855 109.342 89.0043 109.317 88.8298 109.29C88.4495 109.242 88.3729 108.962 88.3353 108.595C88.2725 108.063 88.2725 107.062 88.2725 105.848V100.491H88.275V100.491Z" fill="black"/>
<path fill-rule="evenodd" clip-rule="evenodd" d="M94.0911 105.847C94.0911 107.061 94.0911 108.062 94.027 108.594C93.9756 108.959 93.9128 109.24 93.6605 109.289C93.5463 109.316 93.3944 109.341 93.2814 109.341C93.2048 109.341 93.1797 109.38 93.1797 109.419C93.1797 109.494 93.2425 109.519 93.3806 109.519C93.5726 109.519 93.8613 109.506 94.1162 109.493C94.381 109.493 94.597 109.481 94.6221 109.481C94.9899 109.481 95.8372 109.555 97.749 109.555C98.2461 109.555 98.344 109.555 98.4307 109.225C98.4959 108.959 98.5964 108.101 98.5964 107.999C98.5964 107.911 98.5964 107.808 98.5223 107.808C98.4583 107.808 98.4307 107.86 98.4068 107.999C98.3189 108.517 98.167 108.771 97.8382 108.913C97.5093 109.05 96.9506 109.05 96.6218 109.05C95.3815 109.05 95.192 108.885 95.1531 108.013C95.1418 107.745 95.1531 106.278 95.1531 105.847V104.73C95.1531 104.681 95.1769 104.641 95.2397 104.641C95.4581 104.641 96.7109 104.667 97.0498 104.707C97.5469 104.756 97.6599 104.972 97.7101 105.151C97.7603 105.318 97.7603 105.441 97.7603 105.567C97.7603 105.631 97.7854 105.684 97.8469 105.684C97.9361 105.684 97.9361 105.543 97.9361 105.442C97.9361 105.351 97.9624 104.887 97.9863 104.631C98.0264 104.213 98.088 103.999 98.088 103.924C98.088 103.849 98.0641 103.824 98.0264 103.824C97.975 103.824 97.9235 103.888 97.8356 103.988C97.7214 104.116 97.5457 104.139 97.2406 104.165C96.9481 104.192 95.3903 104.191 95.2271 104.191C95.1631 104.191 95.1505 104.153 95.1505 104.065V100.571C95.1505 100.483 95.1744 100.443 95.2271 100.443C95.3677 100.443 96.746 100.456 96.9607 100.482C97.6461 100.557 97.7729 100.708 97.862 100.913C97.9248 101.063 97.9373 101.278 97.9373 101.367C97.9373 101.47 97.9637 101.532 98.0403 101.532C98.0892 101.532 98.1156 101.456 98.1281 101.395C98.1532 101.24 98.1771 100.684 98.1896 100.557C98.2286 100.203 98.2926 100.05 98.2926 99.9611C98.2926 99.8971 98.2775 99.8481 98.2436 99.8481C98.1771 99.8481 98.1281 99.8971 98.0654 99.9097C97.9624 99.936 97.7603 99.9611 97.518 99.9737C97.2293 99.9862 94.7087 99.9862 94.6183 99.9862C94.553 99.9862 93.7559 99.9498 93.186 99.9498C93.0492 99.9498 92.9839 99.9749 92.9839 100.05C92.9839 100.099 93.0341 100.126 93.0856 100.126C93.2011 100.126 93.4157 100.141 93.5186 100.164C93.9354 100.254 94.0333 100.456 94.0622 100.888C94.0873 101.292 94.0873 101.646 94.0873 103.62V105.847H94.0911V105.847Z" fill="black"/>
<path fill-rule="evenodd" clip-rule="evenodd" d="M102.62 109.697C103.301 109.697 103.988 109.544 104.532 109.162C105.404 108.545 105.607 107.58 105.607 107.061C105.607 106.049 105.252 105.265 103.756 104.086L103.406 103.809C102.212 102.833 101.862 102.399 101.862 101.681C101.862 100.758 102.543 100.212 103.416 100.212C104.583 100.212 104.923 100.744 104.996 100.882C105.075 101.022 105.151 101.365 105.164 101.515C105.179 101.617 105.193 101.681 105.265 101.681C105.331 101.681 105.355 101.593 105.355 101.392C105.355 100.528 105.404 100.11 105.404 100.046C105.404 99.9837 105.379 99.9598 105.279 99.9598C105.178 99.9598 105.075 99.9473 104.834 99.8958C104.518 99.8192 104.153 99.7703 103.655 99.7703C102.05 99.7703 101.037 100.693 101.037 102.049C101.037 102.91 101.338 103.694 102.683 104.794L103.251 105.266C104.342 106.162 104.71 106.668 104.71 107.543C104.71 108.354 104.111 109.225 102.899 109.225C102.05 109.225 101.214 108.875 101.022 107.936C100.987 107.759 100.987 107.581 100.987 107.468C100.987 107.366 100.974 107.327 100.896 107.327C100.835 107.327 100.811 107.394 100.796 107.532C100.783 107.734 100.734 108.239 100.734 108.875C100.734 109.215 100.747 109.267 100.923 109.355C101.44 109.606 102.027 109.697 102.62 109.697" fill="black"/>
<path fill-rule="evenodd" clip-rule="evenodd" d="M114.087 103.496C114.241 103.385 114.264 103.228 114.19 103.112H112.893C113.172 102.23 113.379 101.392 113.869 100.695C114.116 100.344 114.375 100.136 114.676 100.136C114.948 100.136 115.278 100.323 115.311 100.946C115.321 101.02 115.362 101.113 115.455 101.113C115.622 101.113 115.901 100.792 115.901 100.469C115.901 100.052 115.484 99.7837 115.05 99.7837C114.44 99.7837 113.828 100.032 113.306 100.646C112.696 101.372 112.424 102.18 112.154 103.113H111.266C111.127 103.207 111.084 103.405 111.19 103.497H112.051C111.554 105.19 111.21 106.973 110.68 108.706C110.464 109.411 110.217 109.568 110.027 109.568C109.819 109.568 109.549 109.423 109.407 109.181C109.322 109.048 109.25 108.965 109.103 109.091C109.032 109.142 108.91 109.232 108.91 109.465C108.91 109.64 109.103 109.993 109.582 109.993C110.194 109.993 110.639 109.588 110.762 109.465C110.981 109.266 111.295 108.695 111.584 107.762C111.927 106.623 112.227 105.47 112.559 104.318C112.65 104.009 112.736 103.674 112.797 103.498H114.087V103.496Z" fill="black"/>
<path fill-rule="evenodd" clip-rule="evenodd" d="M117.784 102.97C117.36 102.97 116.894 103.125 116.352 103.645C115.648 104.316 115.264 105.324 115.222 105.968C115.161 106.858 115.596 107.349 116.259 107.349C116.543 107.349 117.098 107.295 117.741 106.632C118.512 105.844 118.812 104.847 118.842 104.276C118.885 103.522 118.522 102.97 117.784 102.97V102.97ZM117.716 103.281C118.077 103.281 118.138 103.645 118.128 103.965C118.108 104.514 117.621 105.883 117.162 106.495C116.83 106.941 116.57 107.036 116.346 107.036C116.042 107.036 115.897 106.735 115.921 106.374C115.948 105.824 116.353 104.589 116.956 103.779C117.254 103.375 117.505 103.281 117.716 103.281Z" fill="black"/>
<path fill-rule="evenodd" clip-rule="evenodd" d="M122.537 103.281C122.599 103.102 122.36 102.97 122.224 102.97C121.738 102.97 120.698 103.788 120.431 104.201C120.421 104.295 120.503 104.378 120.608 104.358C120.855 104.098 121.395 103.645 121.593 103.645C121.676 103.645 121.665 103.747 121.593 103.943L120.639 106.466C120.462 106.92 120.514 107.348 120.938 107.348C121.497 107.348 122.785 106.018 123.534 105.076L123.553 105.086L122.846 106.982C122.785 107.147 122.942 107.348 123.106 107.348C123.661 107.348 124.651 106.528 124.922 106.028C124.912 105.905 124.827 105.864 124.734 105.883C124.464 106.207 123.918 106.694 123.721 106.694C123.616 106.694 123.626 106.569 123.68 106.434C124.114 105.202 124.788 103.496 124.891 103.219C124.852 103.093 124.6 102.989 124.384 103.031C124.044 103.663 123.501 104.867 122.557 105.801C122.018 106.33 121.603 106.661 121.449 106.661C121.334 106.661 121.28 106.558 121.378 106.311L122.537 103.281Z" fill="black"/>
<path fill-rule="evenodd" clip-rule="evenodd" d="M128.549 103.396C128.644 103.155 128.529 102.97 128.279 102.97C127.762 102.97 127.126 103.396 126.735 103.935C126.725 104.016 126.774 104.089 126.86 104.089C127.201 103.79 127.565 103.573 127.804 103.573C127.887 103.573 127.887 103.673 127.836 103.809C127.782 103.956 126.683 106.941 126.632 107.078C126.536 107.314 126.815 107.349 126.931 107.349C127.024 107.349 127.067 107.315 127.116 107.221C127.729 106.081 128.156 105.273 128.708 104.587C129.272 103.873 129.889 103.355 130.135 103.355C130.292 103.355 130.305 103.479 130.305 103.602C130.305 103.809 130.168 104.172 130.086 104.359C129.847 104.877 129.463 105.895 129.245 106.404C129.027 106.921 128.996 106.996 128.996 107.088C128.996 107.212 129.153 107.349 129.245 107.349C129.814 107.349 130.635 106.851 131.032 106.184C131.032 106.102 131.008 106.02 130.861 106.041C130.565 106.404 130.064 106.748 129.891 106.748C129.814 106.748 129.825 106.654 129.866 106.549C129.899 106.469 130.643 104.776 130.832 104.257C130.917 104.019 130.999 103.699 130.999 103.532C130.999 103.189 130.821 102.973 130.418 102.973C129.638 102.973 128.613 104.113 127.878 105.234L127.847 105.214L128.549 103.396V103.396Z" fill="black"/>
<path fill-rule="evenodd" clip-rule="evenodd" d="M136.297 103.293C136.185 103.073 135.933 102.97 135.768 102.97C135.271 102.97 134.616 103.259 133.91 103.892C133.092 104.627 132.533 105.864 132.533 106.598C132.533 107.014 132.748 107.347 133.152 107.347C134.158 107.347 134.941 106.341 135.653 105.385L135.692 105.394L135.331 106.422C135.228 106.722 135.196 106.888 135.196 107.014C135.196 107.18 135.31 107.347 135.528 107.347C136.071 107.347 137.01 106.494 137.292 105.925C137.283 105.831 137.232 105.791 137.136 105.791C136.813 106.195 136.161 106.724 135.997 106.724C135.904 106.724 135.891 106.621 135.933 106.485C136.028 106.174 136.514 104.515 137.541 101.681C137.852 100.822 138.009 100.428 138.193 99.8457L138.152 99.7842C137.709 99.7742 137.13 99.9098 136.928 99.9813C136.887 100.021 136.874 100.084 136.897 100.124L137.136 100.293C137.283 100.387 137.252 100.574 137.044 101.154L136.297 103.293ZM135.747 103.28C136.007 103.28 136.142 103.59 136.017 104.026C135.865 104.576 135.558 105.202 134.754 106.029C134.036 106.764 133.509 106.953 133.352 106.953C133.259 106.953 133.153 106.858 133.153 106.734C133.153 106.599 133.153 106.412 133.476 105.749C133.796 105.095 134.542 104.11 134.958 103.726C135.23 103.479 135.507 103.28 135.747 103.28Z" fill="black"/>
<path fill-rule="evenodd" clip-rule="evenodd" d="M142.073 103.396C142.022 103.293 141.906 103.197 141.865 103.176C141.803 103.146 141.73 103.111 141.617 103.111C141.347 103.111 141.085 103.186 140.683 103.413C140.257 103.652 139.811 104.067 139.313 104.75C138.626 105.696 138.397 106.526 138.397 106.762C138.397 107.055 138.564 107.347 138.856 107.347C139.341 107.347 140.402 106.63 141.138 105.718L141.169 105.73L140.826 106.659C140.746 106.9 140.724 106.994 140.724 107.065C140.724 107.145 140.788 107.347 141.022 107.347C141.593 107.347 142.329 106.762 142.768 106.182C142.768 106.101 142.692 106.049 142.622 106.049C142.033 106.569 141.729 106.746 141.552 106.746C141.469 106.746 141.418 106.682 141.478 106.506C141.812 105.562 142.713 103.27 142.87 102.885C142.806 102.753 142.536 102.647 142.364 102.733L142.073 103.396V103.396ZM141.293 103.508C141.563 103.508 141.738 103.685 141.813 103.883C141.646 104.494 141.211 105.386 140.424 106.122C139.832 106.661 139.521 106.795 139.416 106.795C139.323 106.795 139.261 106.723 139.261 106.599C139.261 105.865 139.894 104.504 140.558 103.913C140.882 103.621 141.046 103.508 141.293 103.508Z" fill="black"/>
<path fill-rule="evenodd" clip-rule="evenodd" d="M147.33 103.612C147.463 103.538 147.53 103.332 147.457 103.229H146.325L146.626 102.21C146.543 102.107 146.335 102.085 146.233 102.149L145.651 103.175L144.821 103.319C144.719 103.361 144.685 103.506 144.709 103.609H145.514L144.543 106.473C144.44 106.783 144.396 106.927 144.396 107.064C144.396 107.188 144.531 107.346 144.679 107.346C145.113 107.346 146.089 106.71 146.667 105.854C146.692 105.729 146.628 105.667 146.525 105.667C146.184 106.058 145.499 106.598 145.344 106.598C145.259 106.598 145.21 106.535 145.268 106.341L146.204 103.61H147.33V103.612V103.612Z" fill="black"/>
<path fill-rule="evenodd" clip-rule="evenodd" d="M148.35 106.972C148.301 107.088 148.332 107.182 148.394 107.255C148.445 107.315 148.507 107.349 148.558 107.349C149.276 107.349 150.346 106.414 150.498 106.111C150.498 106.021 150.446 105.947 150.346 105.938C149.993 106.342 149.441 106.704 149.266 106.704C149.182 106.704 149.193 106.58 149.233 106.475L150.471 103.529C150.597 103.229 150.597 103.135 150.533 103.073C150.489 103.031 150.437 102.971 150.364 102.971C150.024 102.971 149.226 103.355 148.655 104.006C148.632 104.088 148.694 104.172 148.789 104.183C149.306 103.756 149.58 103.633 149.65 103.633C149.722 103.633 149.722 103.715 149.673 103.832L148.35 106.972V106.972ZM150.634 100.48C150.23 100.48 150.073 100.907 150.073 101.134C150.073 101.32 150.179 101.527 150.446 101.527C150.77 101.527 150.997 101.197 150.997 100.874C150.997 100.647 150.873 100.48 150.634 100.48" fill="black"/>
<path fill-rule="evenodd" clip-rule="evenodd" d="M154.934 102.97C154.507 102.97 154.039 103.125 153.5 103.645C152.793 104.316 152.41 105.324 152.369 105.968C152.308 106.858 152.742 107.349 153.408 107.349C153.688 107.349 154.247 107.295 154.89 106.632C155.659 105.844 155.958 104.847 155.991 104.276C156.032 103.522 155.667 102.97 154.934 102.97V102.97ZM154.86 103.281C155.225 103.281 155.285 103.645 155.275 103.965C155.252 104.514 154.765 105.883 154.311 106.495C153.98 106.941 153.72 107.036 153.488 107.036C153.191 107.036 153.046 106.735 153.066 106.374C153.095 105.824 153.501 104.589 154.103 103.779C154.404 103.375 154.651 103.281 154.86 103.281" fill="black"/>
<path fill-rule="evenodd" clip-rule="evenodd" d="M159.517 103.396C159.611 103.155 159.496 102.97 159.251 102.97C158.733 102.97 158.099 103.396 157.702 103.935C157.692 104.016 157.746 104.089 157.828 104.089C158.17 103.79 158.536 103.573 158.774 103.573C158.853 103.573 158.853 103.673 158.803 103.809C158.752 103.956 157.651 106.941 157.599 107.078C157.506 107.314 157.785 107.349 157.9 107.349C157.996 107.349 158.035 107.315 158.086 107.221C158.699 106.081 159.123 105.273 159.674 104.587C160.244 103.873 160.859 103.355 161.108 103.355C161.262 103.355 161.272 103.479 161.272 103.602C161.272 103.809 161.139 104.172 161.054 104.359C160.817 104.877 160.434 105.895 160.215 106.404C159.997 106.921 159.965 106.996 159.965 107.088C159.965 107.212 160.12 107.349 160.215 107.349C160.786 107.349 161.605 106.851 162 106.184C162 106.102 161.976 106.02 161.833 106.041C161.53 106.404 161.035 106.748 160.86 106.748C160.786 106.748 160.796 106.654 160.835 106.549C160.867 106.469 161.615 104.776 161.802 104.257C161.885 104.019 161.969 103.699 161.969 103.532C161.969 103.189 161.789 102.973 161.385 102.973C160.611 102.973 159.583 104.113 158.846 105.234L158.814 105.214L159.517 103.396V103.396Z" fill="black"/>
<path fill-rule="evenodd" clip-rule="evenodd" d="M33.2867 91.1815C33.2867 92.6 33.2867 93.7674 33.2139 94.3888C33.1536 94.8168 33.0808 95.1432 32.7833 95.1997C32.6502 95.2298 32.4733 95.2599 32.3389 95.2599C32.2523 95.2599 32.2209 95.3039 32.2209 95.3491C32.2209 95.4357 32.295 95.4658 32.4569 95.4658C32.9013 95.4658 33.8315 95.4219 33.9043 95.4219C34.0236 95.4219 35.5299 95.511 35.8701 95.511C38.3958 95.511 39.6373 93.8703 39.6373 92.2899C39.6373 90.5613 38.1748 89.5132 37.0815 89.1742C37.7757 88.4487 38.4686 87.7244 38.4686 86.513C38.4686 85.7749 37.9363 84.2974 35.5136 84.2974C34.8345 84.2974 34.2595 84.3413 33.9043 84.3413C33.8302 84.3413 32.9001 84.2974 32.236 84.2974C32.0716 84.2974 32 84.3275 32 84.4141C32 84.4756 32.059 84.5045 32.118 84.5045C32.2511 84.5045 32.5009 84.5196 32.6201 84.5497C33.1084 84.6526 33.2252 84.8899 33.2553 85.3907C33.2842 85.864 33.2842 86.2757 33.2842 88.5817V91.1815H33.2867V91.1815ZM34.4679 84.9464C34.4679 84.8597 34.5131 84.8146 34.6462 84.7832C34.8822 84.7242 35.1935 84.7104 35.3542 84.7104C36.8028 84.7104 37.3489 86.0259 37.3489 87.2511C37.3489 87.8562 37.1279 88.3884 36.8179 88.7424C36.5078 89.0977 36.2994 89.1278 35.4722 89.1278C34.9274 89.1278 34.6612 89.0851 34.5709 89.0688C34.4981 89.0387 34.4679 89.0098 34.4679 88.9056V84.9464V84.9464ZM34.4679 89.6299C34.4679 89.5546 34.4981 89.5257 34.5571 89.5257C34.778 89.5257 35.5161 89.5257 35.7082 89.5546C36.0634 89.5998 36.4325 89.6425 36.9359 89.9839C38.0719 90.7672 38.3707 92.0514 38.3707 92.9389C38.3707 94.6084 37.0852 95.0378 36.2869 95.0378C36.0207 95.0378 35.3856 95.0089 34.9864 94.8156C34.5294 94.5934 34.5294 94.3875 34.4842 93.6619C34.4692 93.441 34.4692 91.6095 34.4692 90.4722V89.6299H34.4679V89.6299Z" fill="black"/>
<path fill-rule="evenodd" clip-rule="evenodd" d="M43.9502 89.5585C43.9502 87.5851 43.9502 87.2311 43.9766 86.8244C44.0005 86.3801 44.1021 86.1654 44.4436 86.1026C44.5955 86.0763 44.672 86.065 44.7612 86.065C44.8114 86.065 44.8641 86.0386 44.8641 85.9871C44.8641 85.9118 44.7988 85.8867 44.6582 85.8867C44.2791 85.8867 43.482 85.9244 43.418 85.9244C43.3552 85.9244 42.5581 85.8867 42.1401 85.8867C42.0008 85.8867 41.938 85.9131 41.938 85.9871C41.938 86.0386 41.9882 86.065 42.0384 86.065C42.1275 86.065 42.292 86.0775 42.4301 86.1152C42.7113 86.1792 42.8368 86.3951 42.8619 86.8244C42.8883 87.2299 42.8883 87.5839 42.8883 89.5585V91.7867C42.8883 93.0018 42.8883 94.0035 42.8242 94.5333C42.774 94.9011 42.7113 95.181 42.4577 95.2337C42.3435 95.2576 42.1916 95.2814 42.0773 95.2814C42.0008 95.2814 41.9756 95.3203 41.9756 95.358C41.9756 95.4346 42.0397 95.4584 42.179 95.4584C42.5594 95.4584 43.3565 95.422 43.418 95.422C43.4833 95.422 44.2804 95.4584 44.9758 95.4584C45.1164 95.4584 45.1792 95.422 45.1792 95.358C45.1792 95.3216 45.1528 95.2814 45.0775 95.2814C44.9645 95.2814 44.6846 95.2563 44.5076 95.2337C44.1272 95.181 44.0544 94.9011 44.0143 94.5333C43.9502 94.0023 43.9502 93.0005 43.9502 91.7867V89.5585V89.5585Z" fill="black"/>
<path fill-rule="evenodd" clip-rule="evenodd" d="M49.443 89.5585C49.443 87.5851 49.443 87.2311 49.4693 86.8244C49.4957 86.3801 49.5961 86.1654 49.9627 86.1026C50.1145 86.0763 50.2915 86.065 50.3819 86.065C50.4309 86.065 50.4823 86.0386 50.4823 85.9871C50.4823 85.9118 50.4183 85.8867 50.279 85.8867C49.8986 85.8867 48.9747 85.9244 48.912 85.9244C48.8479 85.9244 48.0496 85.8867 47.4809 85.8867C47.3428 85.8867 47.2788 85.9131 47.2788 85.9871C47.2788 86.0386 47.329 86.065 47.3792 86.065C47.4935 86.065 47.7094 86.0775 47.8098 86.1026C48.2278 86.1905 48.3295 86.3939 48.3546 86.8244C48.381 87.2299 48.381 87.5839 48.381 89.5585V91.7867C48.381 93.0018 48.381 94.0035 48.3157 94.5333C48.2655 94.9011 48.2015 95.181 47.9479 95.2337C47.8337 95.2576 47.683 95.2814 47.5688 95.2814C47.4922 95.2814 47.4671 95.3203 47.4671 95.358C47.4671 95.4346 47.5311 95.4584 47.6692 95.4584C47.86 95.4584 48.1387 95.4471 48.391 95.4333C48.6458 95.4333 48.8605 95.4208 48.9107 95.4208C49.6451 95.4208 50.4811 95.4973 52.3038 95.4973C52.9754 95.4973 53.0118 95.4471 53.1022 95.1559C53.2038 94.7881 53.2917 94.0286 53.2917 93.8905C53.2917 93.7499 53.2779 93.6997 53.2139 93.6997C53.1398 93.6997 53.1135 93.7638 53.1009 93.8654C53.0633 94.1052 52.9352 94.4215 52.7708 94.6249C52.4682 94.9914 51.9096 95.004 51.238 95.004C50.2514 95.004 49.9212 94.9161 49.7191 94.7128C49.4919 94.4856 49.4404 93.6759 49.4404 91.813V89.5585H49.443V89.5585Z" fill="black"/>
<path fill-rule="evenodd" clip-rule="evenodd" d="M56.5526 89.5585C56.5526 87.5851 56.5526 87.2311 56.579 86.8244C56.6053 86.3801 56.7045 86.1654 57.0723 86.1026C57.2242 86.0763 57.4024 86.065 57.4916 86.065C57.5405 86.065 57.592 86.0386 57.592 85.9871C57.592 85.9118 57.528 85.8867 57.3899 85.8867C57.0095 85.8867 56.0869 85.9244 56.0216 85.9244C55.9576 85.9244 55.1592 85.8867 54.5906 85.8867C54.4512 85.8867 54.3872 85.9131 54.3872 85.9871C54.3872 86.0386 54.4387 86.065 54.4889 86.065C54.6031 86.065 54.8178 86.0775 54.9207 86.1026C55.3375 86.1905 55.4392 86.3939 55.4655 86.8244C55.4906 87.2299 55.4906 87.5839 55.4906 89.5585V91.7867C55.4906 93.0018 55.4906 94.0035 55.4279 94.5333C55.3764 94.9011 55.3136 95.181 55.0613 95.2337C54.9471 95.2576 54.7939 95.2814 54.6797 95.2814C54.6031 95.2814 54.5793 95.3203 54.5793 95.358C54.5793 95.4346 54.642 95.4584 54.7814 95.4584C54.9709 95.4584 55.2509 95.4471 55.5019 95.4333C55.7567 95.4333 55.9701 95.4208 56.0216 95.4208C56.756 95.4208 57.592 95.4973 59.4147 95.4973C60.085 95.4973 60.1252 95.4471 60.2143 95.1559C60.3135 94.7881 60.4026 94.0286 60.4026 93.8905C60.4026 93.7499 60.3901 93.6997 60.3261 93.6997C60.2495 93.6997 60.2256 93.7638 60.2131 93.8654C60.1754 94.1052 60.0474 94.4215 59.8817 94.6249C59.5792 94.9914 59.0218 95.004 58.3502 95.004C57.3623 95.004 57.0321 94.9161 56.8313 94.7128C56.6028 94.4856 56.5514 93.6759 56.5514 91.813V89.5585H56.5526V89.5585Z" fill="black"/>
<path fill-rule="evenodd" clip-rule="evenodd" d="M65.054 94.2835C65.8021 94.2835 66.8704 93.9621 67.6211 93.1186C68.4433 92.1884 68.6793 91.1289 68.7107 90.8075C68.732 90.6042 68.7533 90.092 68.7533 89.8987C69.0847 90.1661 69.4375 90.5715 69.4902 90.6582C69.5467 90.7423 69.6295 90.795 69.7475 90.7209C69.9396 90.6029 70.3677 90.4761 70.5497 90.4535C70.6677 90.4322 70.7643 90.4234 70.8284 90.3468C70.9137 90.2615 71.0317 90.0908 71.0317 89.8447C71.0317 89.5673 70.925 89.2459 70.6363 89.2459C70.4442 89.2459 70.2949 89.3853 70.2949 89.5133C70.2949 89.546 70.3162 89.5987 70.3375 89.674C70.3589 89.738 70.3802 89.8234 70.3802 89.9414C70.3802 90.1234 70.2735 90.2728 70.1643 90.2728C69.9748 90.2728 69.9409 90.2188 69.6961 89.9941C69.1701 89.5246 68.8613 89.1606 68.2726 89.1606C68.1232 89.1606 67.6411 89.2459 67.2143 89.5999C66.6796 90.0393 66.4863 90.5188 66.4863 90.7962C66.4863 91.0837 66.7223 91.2256 66.947 91.2256C67.247 91.2256 67.2997 91.0009 67.2997 90.9255C67.2997 90.8615 67.257 90.7435 67.2231 90.628C67.193 90.5088 67.1378 90.372 67.1378 90.274C67.1378 89.91 67.5859 89.5899 67.9186 89.5899C68.1345 89.5899 68.3579 89.664 68.4747 89.7732C68.4433 90.6481 68.3027 91.1841 67.8972 91.9323C67.2771 93.0771 66.1862 93.6759 65.2987 93.6759C64.4765 93.6759 63.3844 93.2177 63.4057 91.8482V91.7628C64.5179 91.0046 66.3143 89.6439 67.2018 88.7677C68.196 87.7961 68.5487 87.132 68.5487 86.5759C68.5487 86.1591 68.3027 86.0098 68.0567 86.0098C67.8533 86.0098 67.6286 86.1591 67.6286 86.4491C67.6286 86.5659 67.6587 86.5985 67.7453 86.6851C67.8219 86.7592 67.8759 86.8558 67.8759 87.0065C67.8759 87.2839 67.6399 87.712 67.4905 87.9028C67.1917 88.2982 66.4524 89.0476 65.9829 89.433C65.8862 89.2962 65.7795 89.0162 65.3088 89.0162C65.074 89.0162 64.41 89.1229 63.7145 89.8497C62.8597 90.7259 62.689 91.6147 62.689 92.1495C62.6915 93.2479 63.3656 94.2835 65.054 94.2835V94.2835ZM63.4296 91.3536C63.5037 90.9055 63.6744 90.4774 64.007 90.0393C64.3284 89.6213 64.6786 89.4619 64.8305 89.4619C65.0339 89.4619 65.182 89.5899 65.182 89.792C65.182 89.8146 65.182 89.9527 65.172 90.0493C64.8192 90.3594 64.1891 90.8289 63.4296 91.3536Z" fill="black"/>
<path fill-rule="evenodd" clip-rule="evenodd" d="M84.9009 84.3979C84.8708 84.1167 84.8243 84 84.7214 84C84.6172 84 84.5582 84.1029 84.4992 84.236L80.1559 93.5152L75.6343 84.2222C75.5589 84.0577 75.5025 84 75.4121 84C75.3242 84 75.2803 84.1029 75.2489 84.2661L74.1856 93.8993C74.1266 94.4605 74.0827 95.0354 73.5931 95.1258C73.3722 95.171 73.2693 95.171 73.15 95.171C73.0759 95.171 73.0044 95.1986 73.0044 95.2438C73.0044 95.3492 73.1061 95.3768 73.2542 95.3768C73.6534 95.3768 74.3614 95.3329 74.4944 95.3329C74.6137 95.3329 75.3217 95.3768 75.8703 95.3768C76.046 95.3768 76.1339 95.3492 76.1339 95.2438C76.1339 95.1998 76.0761 95.171 76.0159 95.171C75.9267 95.171 75.7058 95.1546 75.4548 95.0956C75.2326 95.0517 75.0706 94.8596 75.0706 94.6387C75.0706 94.3877 75.0706 94.1215 75.0857 93.8843L75.6769 87.0291H75.7359C75.9004 87.427 77.5536 90.9745 77.6867 91.2393C77.762 91.3875 79.0311 93.9433 79.4165 94.6676C79.6964 95.1986 79.7692 95.348 79.8722 95.348C80.0052 95.348 80.0517 95.2136 80.3617 94.5621L83.9808 86.8809H84.0247L84.7327 94.5031C84.7628 94.7693 84.749 95.0203 84.6737 95.0354C84.6009 95.0517 84.5708 95.0806 84.5708 95.1408C84.5708 95.2136 84.6461 95.2588 84.9838 95.2877C85.5323 95.3316 87.1253 95.3756 87.4517 95.3756C87.6312 95.3756 87.7618 95.3316 87.7618 95.2425C87.7618 95.1835 87.7178 95.1697 87.6438 95.1697C87.4944 95.1697 87.1128 95.1697 86.6847 95.0354C86.047 94.8295 85.9441 94.0023 85.8851 93.47L84.9009 84.3979V84.3979Z" fill="black"/>
<path fill-rule="evenodd" clip-rule="evenodd" d="M89.8606 91.6987C89.8606 92.9138 89.8606 93.9143 89.7966 94.4453C89.7464 94.8131 89.6836 95.0905 89.4313 95.1432C89.3158 95.1683 89.1639 95.1922 89.0509 95.1922C88.9744 95.1922 88.948 95.2311 88.948 95.2688C88.948 95.3453 89.012 95.3704 89.1526 95.3704C89.3422 95.3704 89.6334 95.3566 89.887 95.3441C90.1531 95.3441 90.3677 95.3328 90.3941 95.3328C90.7606 95.3328 91.6092 95.4081 93.5198 95.4081C94.0144 95.4081 94.1161 95.4081 94.2027 95.078C94.2667 94.8131 94.3684 93.9519 94.3684 93.849C94.3684 93.7599 94.3684 93.6582 94.2906 93.6582C94.2291 93.6582 94.2027 93.7122 94.1788 93.849C94.0885 94.3674 93.9366 94.621 93.6064 94.7604C93.2788 94.8997 92.7202 94.8997 92.3925 94.8997C91.1498 94.8997 90.9615 94.7353 90.9226 93.8628C90.9113 93.5967 90.9226 92.1267 90.9226 91.6974V90.5827C90.9226 90.5312 90.9477 90.4936 91.0117 90.4936C91.2276 90.4936 92.4792 90.5199 92.8219 90.5576C93.3164 90.6078 93.4294 90.8237 93.4796 91.002C93.5299 91.1652 93.5298 91.2907 93.5298 91.4187C93.5298 91.4815 93.555 91.5342 93.6165 91.5342C93.7056 91.5342 93.7056 91.3949 93.7056 91.292C93.7056 91.2041 93.732 90.7371 93.7583 90.4823C93.7947 90.0643 93.8587 89.8484 93.8587 89.7743C93.8587 89.6977 93.8336 89.6714 93.7947 89.6714C93.7458 89.6714 93.6943 89.7341 93.6039 89.8371C93.4922 89.9638 93.3152 89.9877 93.0102 90.0153C92.7177 90.0417 91.1598 90.0417 90.9966 90.0417C90.9339 90.0417 90.9201 90.0028 90.9201 89.9136V86.4176C90.9201 86.3297 90.9452 86.2908 90.9966 86.2908C91.1372 86.2908 92.5156 86.3021 92.7315 86.3285C93.4156 86.4038 93.5424 86.5557 93.6315 86.759C93.6956 86.9109 93.7069 87.1256 93.7069 87.2135C93.7069 87.3164 93.7332 87.3779 93.8098 87.3779C93.86 87.3779 93.8851 87.3026 93.8977 87.2411C93.9215 87.0892 93.9479 86.5318 93.9617 86.4038C93.9993 86.0511 94.0634 85.8992 94.0634 85.8088C94.0634 85.7448 94.0495 85.6958 94.0119 85.6958C93.9479 85.6958 93.8977 85.7448 93.8349 85.7611C93.732 85.7849 93.5299 85.8088 93.2888 85.8213C92.9989 85.8351 90.4769 85.8351 90.3903 85.8351C90.3238 85.8351 89.5267 85.7975 88.9568 85.7975C88.8187 85.7975 88.7534 85.8226 88.7534 85.8992C88.7534 85.9494 88.8049 85.9745 88.8563 85.9745C88.9706 85.9745 89.1865 85.987 89.2857 86.0134C89.7049 86.1013 89.8054 86.3021 89.8305 86.7339C89.8568 87.1394 89.8568 87.4934 89.8568 89.4705V91.6987H89.8606V91.6987Z" fill="black"/>
<path fill-rule="evenodd" clip-rule="evenodd" d="M98.4151 89.4694C98.4151 87.4936 98.4151 87.1396 98.4415 86.7328C98.4678 86.2897 98.5683 86.0763 98.9336 86.0123C99.088 85.9859 99.265 85.9734 99.3528 85.9734C99.4043 85.9734 99.4583 85.9483 99.4583 85.8981C99.4583 85.8202 99.3917 85.7964 99.2524 85.7964C98.8695 85.7964 97.9494 85.834 97.8854 85.834C97.8214 85.834 97.0217 85.7964 96.4531 85.7964C96.315 85.7964 96.251 85.8215 96.251 85.8981C96.251 85.9483 96.3024 85.9734 96.3539 85.9734C96.4669 85.9734 96.6815 85.9859 96.7832 86.0123C97.2025 86.1002 97.3042 86.301 97.3268 86.7328C97.3544 87.1383 97.3544 87.4923 97.3544 89.4694V91.6976C97.3544 92.9127 97.3544 93.9132 97.2916 94.4442C97.2414 94.812 97.1761 95.0894 96.9213 95.1434C96.8083 95.1672 96.6552 95.1911 96.541 95.1911C96.4656 95.1911 96.4393 95.23 96.4393 95.2677C96.4393 95.3442 96.5033 95.3693 96.6426 95.3693C96.8334 95.3693 97.1121 95.3555 97.3657 95.343C97.618 95.343 97.8352 95.3304 97.8841 95.3304C98.6185 95.3304 99.457 95.407 101.276 95.407C101.948 95.407 101.984 95.3555 102.076 95.0656C102.176 94.699 102.264 93.9408 102.264 93.799C102.264 93.6571 102.254 93.6094 102.19 93.6094C102.111 93.6094 102.087 93.6734 102.074 93.7751C102.038 94.0149 101.912 94.3312 101.745 94.5333C101.439 94.9011 100.884 94.9149 100.213 94.9149C99.2235 94.9149 98.8934 94.8258 98.6925 94.6249C98.4641 94.3952 98.4126 93.5856 98.4126 91.7252V89.4694H98.4151Z" fill="black"/>
<path fill-rule="evenodd" clip-rule="evenodd" d="M105.827 89.4694C105.827 87.4936 105.827 87.1396 105.854 86.7328C105.88 86.2897 105.98 86.0763 106.321 86.0123C106.475 85.9859 106.552 85.9734 106.638 85.9734C106.691 85.9734 106.74 85.9483 106.74 85.8981C106.74 85.8202 106.678 85.7964 106.539 85.7964C106.156 85.7964 105.361 85.834 105.301 85.834C105.235 85.834 104.436 85.7964 104.02 85.7964C103.883 85.7964 103.815 85.8215 103.815 85.8981C103.815 85.9483 103.865 85.9734 103.919 85.9734C104.004 85.9734 104.171 85.9859 104.312 86.0261C104.592 86.0889 104.719 86.3023 104.741 86.7328C104.768 87.1383 104.768 87.4923 104.768 89.4694V91.6976C104.768 92.9127 104.768 93.9132 104.705 94.4442C104.656 94.812 104.591 95.0894 104.337 95.1434C104.223 95.1672 104.071 95.1911 103.956 95.1911C103.881 95.1911 103.853 95.23 103.853 95.2677C103.853 95.3442 103.919 95.3693 104.056 95.3693C104.436 95.3693 105.235 95.3317 105.301 95.3317C105.363 95.3317 106.157 95.3693 106.855 95.3693C106.995 95.3693 107.057 95.3317 107.057 95.2677C107.057 95.2313 107.034 95.1911 106.958 95.1911C106.843 95.1911 106.565 95.166 106.39 95.1434C106.004 95.0894 105.931 94.812 105.894 94.4442C105.827 93.9119 105.827 92.9115 105.827 91.6976V89.4694V89.4694Z" fill="black"/>
<path fill-rule="evenodd" clip-rule="evenodd" d="M110.435 87.5827C110.842 88.0371 112.269 89.6339 113.74 91.2168C115.083 92.6591 116.907 94.522 117.045 94.6475C117.72 95.3191 117.869 95.4585 117.969 95.4585C118.057 95.4585 118.085 95.3944 118.085 94.5572L118.11 87.1383C118.11 86.3788 118.159 86.1002 118.576 86.0123C118.733 85.9734 118.818 85.9734 118.883 85.9734C118.972 85.9734 119.021 85.9345 119.021 85.8868C119.021 85.8102 118.931 85.7976 118.793 85.7976C118.276 85.7976 117.856 85.8353 117.72 85.8353C117.576 85.8353 116.966 85.7976 116.403 85.7976C116.246 85.7976 116.145 85.8114 116.145 85.8868C116.145 85.9345 116.162 85.9734 116.246 85.9734C116.349 85.9734 116.64 85.9859 116.866 86.0374C117.259 86.1378 117.347 86.4178 117.362 87.2412L117.501 93.6734C117.094 93.2554 115.714 91.7114 114.461 90.3695C112.511 88.2794 110.623 86.2408 110.435 86.0261C110.307 85.8981 110.095 85.6194 109.992 85.6194C109.89 85.6194 109.854 85.76 109.854 86.2533L109.839 93.5077C109.839 94.6601 109.775 95.0292 109.458 95.1158C109.27 95.1798 109.042 95.1923 108.943 95.1923C108.877 95.1923 108.841 95.2187 108.841 95.2689C108.841 95.3568 108.917 95.3706 109.042 95.3706C109.613 95.3706 110.143 95.3329 110.258 95.3329C110.374 95.3329 110.879 95.3706 111.599 95.3706C111.753 95.3706 111.825 95.3442 111.825 95.2689C111.825 95.2187 111.791 95.1923 111.727 95.1923C111.614 95.1923 111.334 95.1798 111.092 95.1158C110.751 95.0141 110.623 94.6839 110.598 93.6471L110.435 87.5827V87.5827Z" fill="black"/>
<path fill-rule="evenodd" clip-rule="evenodd" d="M121.711 91.7001C121.711 92.914 121.711 93.9145 121.644 94.4467C121.594 94.8145 121.531 95.092 121.276 95.1447C121.163 95.1698 121.011 95.1936 120.898 95.1936C120.819 95.1936 120.795 95.2326 120.795 95.2702C120.795 95.3468 120.859 95.3719 120.999 95.3719C121.379 95.3719 122.176 95.3342 122.237 95.3342C122.367 95.3342 123.96 95.4861 125.048 95.4861C127.201 95.4861 128.342 94.5986 128.886 94.03C129.593 93.2831 130.254 92.0541 130.254 90.4586C130.254 88.9523 129.658 87.9016 129.025 87.2425C127.518 85.686 125.199 85.7989 123.95 85.7989C123.191 85.7989 122.393 85.8366 122.237 85.8366C122.175 85.8366 121.378 85.7989 120.805 85.7989C120.67 85.7989 120.608 85.824 120.608 85.9006C120.608 85.9508 120.657 85.9759 120.709 85.9759C120.819 85.9759 121.035 85.9885 121.138 86.0148C121.555 86.104 121.655 86.3036 121.683 86.7354C121.709 87.1409 121.709 87.4949 121.709 89.472V91.7001H121.711V91.7001ZM122.773 89.2661C122.773 88.2907 122.773 87.0003 122.785 86.5709C122.785 86.4304 122.822 86.3676 122.94 86.3161C123.037 86.2659 123.506 86.2282 123.76 86.2282C125.266 86.2282 126.71 86.4052 127.902 87.6593C128.419 88.2041 129.116 89.2435 129.116 90.8515C129.116 92.0152 128.762 93.2316 128.105 93.8768C127.357 94.6237 126.269 95.0543 125.092 95.0543C123.597 95.0543 123.101 94.7882 122.94 94.5472C122.834 94.4091 122.809 93.9007 122.799 93.5843C122.785 93.3446 122.773 92.1797 122.773 90.8365V89.2661V89.2661Z" fill="black"/>
<path fill-rule="evenodd" clip-rule="evenodd" d="M131.76 93.9772C131.531 94.6099 131.279 95.0907 130.695 95.1673C130.595 95.1786 130.416 95.1924 130.33 95.1924C130.262 95.1924 130.214 95.2187 130.214 95.2689C130.214 95.3455 130.291 95.3706 130.457 95.3706C131.053 95.3706 131.746 95.333 131.886 95.333C132.023 95.333 132.571 95.3706 132.874 95.3706C132.987 95.3706 133.063 95.3443 133.063 95.2689C133.063 95.2187 133.026 95.1924 132.935 95.1924H132.809C132.591 95.1924 132.326 95.0781 132.326 94.8246C132.326 94.5961 132.39 94.2936 132.503 93.9772L133.262 91.7353C133.289 91.6712 133.324 91.6348 133.393 91.6348H136.114C136.176 91.6348 136.202 91.6612 136.227 91.7114L137.405 94.8246C137.484 95.0292 137.405 95.1434 137.331 95.1673C137.279 95.1786 137.24 95.2037 137.24 95.2551C137.24 95.3317 137.382 95.3317 137.621 95.343C138.496 95.3694 139.418 95.3694 139.609 95.3694C139.748 95.3694 139.864 95.343 139.864 95.2677C139.864 95.2037 139.812 95.1911 139.736 95.1911C139.608 95.1911 139.417 95.1773 139.226 95.1145C138.961 95.038 138.596 94.8359 138.138 93.7099C137.368 91.7842 135.38 86.5546 135.188 86.0738C135.038 85.6809 134.99 85.6182 134.91 85.6182C134.834 85.6182 134.782 85.696 134.631 86.1128L131.76 93.9772ZM133.532 91.1779C133.496 91.1779 133.468 91.1528 133.496 91.09L134.612 87.6706C134.671 87.4823 134.735 87.4823 134.8 87.6706L136.001 91.09C136.014 91.1403 136.014 91.1779 135.952 91.1779H133.532V91.1779Z" fill="black"/>
</svg>
