<svg width="194" height="194" viewBox="0 0 194 194" fill="none" xmlns="http://www.w3.org/2000/svg">
<path d="M115.371 97.0003C115.371 107.153 107.153 115.371 97.0002 115.371V97.0003H115.371ZM97.0002 78.6299V97.0003H78.6299C78.6299 86.8479 86.8479 78.6299 97.0002 78.6299Z" fill="black"/>
<path d="M97.0003 78.6299C107.153 78.6299 115.371 86.8479 115.371 97.0002H97.0003V78.6299ZM78.6299 97.0002H97.0003V115.371C86.8479 115.371 78.6299 107.153 78.6299 97.0002Z" fill="white"/>
<path d="M97 78.6296V79.6368C106.573 79.6368 114.363 87.425 114.363 97H115.37C115.37 86.855 107.145 78.6296 97 78.6296ZM97 114.363C87.4269 114.363 79.6369 106.575 79.6369 97H78.6296C78.6296 107.145 86.855 115.37 97 115.37V114.363ZM97 66C79.8796 66 66 79.8796 66 97C66 114.12 79.8796 128 97 128C114.12 128 128 114.12 128 97C128 79.8796 114.12 66 97 66V66ZM125.984 97C125.984 113.007 113.009 125.984 97 125.984C80.9915 125.984 68.0159 113.007 68.0159 97C68.0159 80.9933 80.9933 68.0159 97 68.0159C113.007 68.0159 125.984 80.9933 125.984 97V97Z" fill="black"/>
<path d="M83.7519 82.045C84.7425 81.0087 85.3033 79.8115 84.3127 78.6686C83.7737 78.0483 82.8687 77.9127 82.1184 78.2183L82.0438 78.2472L82.0674 78.1821C82.1785 77.8874 82.2495 76.947 81.4428 76.2977C81.0495 75.9813 80.556 75.8637 80.0571 75.9144C79.1266 76.0084 78.4109 76.6395 76.4624 78.797C75.8743 79.448 75.0184 80.4752 74.5049 81.1407L79.8568 86.1827C81.6304 84.2332 82.3533 83.508 83.7519 82.045ZM76.7684 80.8116C77.8464 79.5023 78.9918 78.3142 79.5108 77.844C79.6747 77.6957 79.8531 77.5474 80.0698 77.4895C80.4213 77.3937 80.7836 77.6414 80.8656 77.9995C80.9475 78.3594 80.7199 78.7012 80.4668 78.9833C79.8968 79.6217 77.8063 81.7936 77.8063 81.7936L76.7684 80.8116ZM78.8643 82.7864C78.8643 82.7864 80.9002 80.6488 81.5649 79.9653C81.8289 79.694 81.9982 79.5294 82.1803 79.4408C82.4153 79.3269 82.672 79.3034 82.9015 79.4553C83.1273 79.6054 83.2311 79.864 83.1746 80.1208C83.1072 80.4264 82.8559 80.7176 82.6483 80.94C82.3679 81.2384 79.9533 83.8046 79.9496 83.8082L78.8643 82.7864V82.7864ZM97.6114 76.0319L99.3249 72.2197L99.4342 71.8815L99.4033 72.2342L99.5835 77.3286C100.184 77.3846 100.805 77.4678 101.417 77.5691L101.139 70.0243C100.283 69.9302 99.4306 69.8633 98.5783 69.8271L96.8903 73.9884L96.8302 74.2976L96.7701 73.9884L95.0839 69.8271C94.2316 69.8633 93.3794 69.9302 92.5236 70.0243L92.2449 77.5691C92.8568 77.4678 93.4778 77.3864 94.0787 77.3286L94.259 72.2342L94.228 71.8815L94.3373 72.2197L96.0508 76.0319H97.6114H97.6114ZM111.842 83.9185C112.263 84.367 112.869 85.0904 113.21 85.5298L119.481 81.5766C119.168 81.1697 118.669 80.5512 118.296 80.1154L114.324 82.7231L114.053 82.9546L114.255 82.6616L116.009 79.1858L114.769 77.9543L111.267 79.6958L110.972 79.8965L111.207 79.6271L113.835 75.6847C113.372 75.2941 112.928 74.936 112.361 74.502L108.381 80.7248C108.885 81.11 109.55 81.676 109.974 82.0612L113.722 80.1298L113.962 79.9544L113.785 80.1931L111.842 83.9185Z" fill="black"/>
</svg>
